<svg width="88" height="23" viewBox="0 0 88 23" fill="none" xmlns="http://www.w3.org/2000/svg">
<g clip-path="url(#clip0_91_421)">
<path fill-rule="evenodd" clip-rule="evenodd" d="M1.35867 8.54482L18.3223 7.8299C18.8874 7.80616 19.4631 8.19098 19.3512 8.61339C18.1356 13.2021 18.3505 17.7319 19.6727 22.2161C19.7967 22.6366 19.2097 22.9996 18.6439 22.9996H0.844207C0.278423 22.9996 -0.122073 22.4931 0.0339863 22.0789C1.38594 18.4926 1.73889 14.462 0.484125 9.30872C0.380924 8.88503 0.793726 8.56867 1.35867 8.54482Z" fill="#268ACB"/>
<path fill-rule="evenodd" clip-rule="evenodd" d="M5.48689 10.4252C5.89886 10.4252 6.23279 10.6794 6.23279 10.9931C6.23279 11.3068 5.89886 11.5611 5.48689 11.5611C5.07493 11.5611 4.741 11.3068 4.741 10.9931C4.741 10.6794 5.07493 10.4252 5.48689 10.4252ZM13.1738 12.9369C13.1707 12.6351 13.4894 12.3886 13.8856 12.3862C14.2819 12.3839 14.6054 12.6266 14.6087 12.9282L14.6088 12.9477V12.952L14.6089 12.9714H14.6117C14.6117 14.0152 14.056 14.9602 13.1577 15.6444C12.2592 16.3284 11.0182 16.7516 9.64735 16.7516C8.27666 16.7516 7.0356 16.3284 6.13714 15.6444C5.23868 14.9602 4.68311 14.0152 4.68311 12.9714H4.6859V12.9525C4.6859 12.6507 5.00711 12.4062 5.40341 12.4062C5.79957 12.4062 6.12078 12.6507 6.12078 12.9525L6.12064 12.9714H6.12344C6.12344 13.7125 6.51792 14.3833 7.15558 14.8689C7.79324 15.3544 8.67422 15.6547 9.64735 15.6547C10.6206 15.6547 11.5016 15.3544 12.1393 14.8689C12.7769 14.3833 13.1713 13.7125 13.1713 12.9714H13.1741V12.957V12.9562L13.1738 12.9369ZM13.8079 10.4252C14.2199 10.4252 14.5538 10.6794 14.5538 10.9931C14.5538 11.3068 14.2199 11.5611 13.8079 11.5611C13.396 11.5611 13.0621 11.3068 13.0621 10.9931C13.0621 10.6794 13.396 10.4252 13.8079 10.4252Z" fill="white"/>
<path fill-rule="evenodd" clip-rule="evenodd" d="M8.33217 7.67809L7.56055 2.74236L7.92049 2.45826C7.93685 2.48424 7.95391 2.50735 7.97209 2.52694C8.22897 2.42962 8.89432 2.1435 9.35649 1.943C9.50905 2.06662 9.72552 2.14382 9.9659 2.14382C10.2204 2.14382 10.4483 2.05715 10.6016 1.92053L12.2114 2.18599L12.6536 2.39959C12.6536 2.39959 13.2854 6.50743 13.4505 7.62687L8.37175 7.8409L8.33217 7.67809ZM8.93557 1.00671L8.38363 0.294027C8.38363 0.294027 8.62164 0.215763 8.75672 0.25974C8.89166 0.303823 9.05248 0.367499 9.1361 0.33811C9.21958 0.308721 9.52191 0.0688182 9.65042 0.0345312C9.77908 0.000244141 9.81767 0.000244141 9.81767 0.000244141C9.81767 0.000244141 10.2163 0.093309 10.3128 0.166781C10.4093 0.240147 10.4608 0.274434 10.5571 0.245152C10.6536 0.215763 10.9302 0.0443275 11.0394 0.0345312C11.1488 0.0247349 11.2195 0.029633 11.2195 0.029633L10.9216 0.899587C10.7933 0.954851 10.6689 1.00873 10.557 1.05718C10.4057 0.941966 10.1968 0.87073 9.9659 0.87073C9.72314 0.87073 9.50457 0.949527 9.35187 1.07539L8.93557 1.00671Z" fill="#8FC43F"/>
<path fill-rule="evenodd" clip-rule="evenodd" d="M7.70247 0.803442C7.6285 0.927067 7.67143 2.20272 7.9725 2.52706C8.22938 2.42973 8.89473 2.14362 9.35689 1.94311C9.50946 2.06674 9.72593 2.14394 9.96631 2.14394C10.2208 2.14394 10.4487 2.05726 10.602 1.92065L12.2301 2.18919C12.3041 2.06546 12.2612 0.789812 11.96 0.465576C11.6997 0.564178 11.0203 0.85647 10.5574 1.05729C10.4061 0.942081 10.1972 0.870845 9.96631 0.870845C9.72355 0.870845 9.50498 0.949641 9.35228 1.0755L7.70247 0.803442Z" fill="#1EAC4B"/>
<path fill-rule="evenodd" clip-rule="evenodd" d="M11.7421 3.80129L14.0041 4.1875L14.0806 4.20049L14.0041 4.1875L12.9857 7.64665L10.0903 7.76868L11.1781 4.07345C11.2349 3.88051 11.4887 3.75806 11.7421 3.80129ZM16.8795 4.67827L18.9677 5.03477C19.221 5.078 19.3819 5.27126 19.3251 5.46421L18.7541 7.40356L15.8588 7.52558L16.6939 4.68892C16.7571 4.68657 16.8191 4.68295 16.8795 4.67827Z" fill="#DF3286"/>
<path fill-rule="evenodd" clip-rule="evenodd" d="M14.0038 4.18748L14.0803 4.20047C13.6956 3.98229 12.7054 3.48407 12.9452 3.06836C13.2433 2.55161 14.0021 2.5991 14.4415 2.91865C14.8808 3.2382 15.1253 3.7852 15.152 4.1139C15.152 4.1139 15.4346 4.04682 15.6464 4.12626C15.8583 4.20558 15.8968 4.22007 15.8968 4.22007C15.8968 4.22007 16.9585 3.18805 17.6753 3.39292C18.3922 3.59779 18.5924 4.02808 18.3877 4.21549C18.1965 4.39022 17.5716 4.65621 16.6935 4.6889L15.8584 7.52557L12.9853 7.64664L14.0038 4.18748ZM14.6013 3.9759C14.6013 3.9759 14.3652 3.27717 14.0426 3.15632C13.72 3.03535 13.5213 3.0838 13.4289 3.22681C13.3365 3.36981 13.9559 3.69756 14.6013 3.9759ZM17.7292 3.81842C17.7292 3.81842 17.9608 3.95983 17.8728 4.06812C17.785 4.1763 16.9868 4.30078 16.8165 4.30514C16.6461 4.30962 16.4421 4.30152 16.4421 4.30152C16.4421 4.30152 16.9336 3.95748 17.1991 3.84291C17.4645 3.72833 17.6327 3.76411 17.7292 3.81842Z" fill="#EF9720"/>
<path fill-rule="evenodd" clip-rule="evenodd" d="M0.81828 5.88119L3.51883 5.38488L3.61014 5.36806L3.51883 5.38488L4.35114 8.0105L0.956579 8.15361L0.401003 6.40114C0.328008 6.17072 0.51581 5.93678 0.81828 5.88119ZM6.95171 4.75387L9.44474 4.29568C9.74721 4.2401 10.0546 4.38311 10.1276 4.61342L11.114 7.72545L7.71956 7.86856L6.75957 4.84012C6.82586 4.81212 6.8899 4.78326 6.95171 4.75387Z" fill="#EF9720"/>
<path fill-rule="evenodd" clip-rule="evenodd" d="M3.51875 5.3848L3.61007 5.36797C3.04484 5.28843 1.63388 5.15171 1.60283 4.60801C1.56424 3.93228 2.41305 3.67769 3.10749 3.84412C3.80206 4.01065 4.44504 4.50025 4.70234 4.84302C4.70234 4.84302 4.9595 4.657 5.24253 4.657C5.52543 4.657 5.57689 4.657 5.57689 4.657C5.57689 4.657 6.00129 3.1194 6.91444 3.05094C7.82744 2.98236 8.3419 3.36431 8.25199 3.6483C8.16794 3.91322 7.68089 4.45095 6.7595 4.84004L7.71948 7.86848L4.35107 8.01042L3.51875 5.3848ZM4.0142 4.91649C4.0142 4.91649 3.27473 4.26035 2.84389 4.26035C2.41305 4.26035 2.23294 4.3926 2.23294 4.58352C2.23294 4.77444 3.12679 4.87731 4.0142 4.91649ZM7.26809 3.48666C7.26809 3.48666 7.6153 3.54544 7.59601 3.69728C7.57671 3.84901 6.80508 4.30444 6.62497 4.37791C6.445 4.45138 6.21986 4.52475 6.21986 4.52475C6.21986 4.52475 6.50919 3.95677 6.71503 3.72667C6.92073 3.49645 7.12657 3.46717 7.26809 3.48666Z" fill="#E41F29"/>
<path fill-rule="evenodd" clip-rule="evenodd" d="M29.6277 7.74313C33.0087 7.74313 35.7495 9.83017 35.7495 12.4047C35.7495 14.9792 33.0087 17.0662 29.6277 17.0662C26.2467 17.0662 23.5059 14.9792 23.5059 12.4047V5.17736C24.3092 4.51089 25.2678 4.10061 26.3798 4.0609C26.3798 6.70505 26.3798 9.34919 26.3798 11.9933C26.3798 13.9343 27.3757 15.5724 29.3409 15.5724C31.6386 15.5724 32.9904 14.1542 32.9904 12.4047C32.9904 10.6552 31.1279 9.23696 28.8303 9.23696C28.4167 9.23696 28.0173 9.28296 27.6402 9.36857C27.6402 9.36857 28.1633 8.33304 29.1605 7.75655C29.3147 7.74771 29.4705 7.74313 29.6277 7.74313ZM72.2636 2.82241C72.8802 2.82241 73.4417 3.00247 73.8625 3.29711L73.2669 3.75061C72.9991 3.57151 72.648 3.4629 72.2636 3.4629C71.423 3.4629 70.7417 3.98178 70.7417 4.62173C70.7417 5.2618 71.423 5.78057 72.2636 5.78057C72.648 5.78057 72.9991 5.67196 73.2669 5.49297L73.8625 5.94647C73.4417 6.24111 72.8802 6.42106 72.2636 6.42106C70.9585 6.42106 69.9006 5.61553 69.9006 4.62173C69.9006 3.62805 70.9585 2.82241 72.2636 2.82241ZM80.0146 3.25249C80.2866 3.02696 80.6046 2.87767 80.9682 2.83434V3.42403C81.1521 3.25558 81.6804 2.83679 82.3894 2.83679C83.1982 2.83679 83.6819 3.13376 83.8579 3.49037C83.8989 3.44703 84.4916 2.83679 85.3474 2.83679C86.5779 2.83679 86.9863 3.45427 86.9863 4.27556V4.27642V5.87353C86.6768 6.13026 86.3076 6.28828 85.8793 6.30361V4.24213C85.8793 4.24213 85.8361 3.5468 85.0773 3.5468C83.9221 3.5468 84.086 4.24 84.0283 4.40409V5.87353C83.7188 6.13026 83.3496 6.28828 82.9213 6.30361V4.24213C82.9213 4.24213 82.8781 3.5468 82.1193 3.5468C81.3604 3.5468 81.1217 3.94345 81.1217 4.29601V5.87353C80.8123 6.13026 80.4431 6.28828 80.0146 6.30361V3.25249ZM76.9449 2.82241C78.25 2.82241 79.3079 3.62805 79.3079 4.62173C79.3079 5.61553 78.25 6.42106 76.9449 6.42106C75.64 6.42106 74.5819 5.61553 74.5819 4.62173C74.5819 3.62805 75.64 2.82241 76.9449 2.82241ZM76.9449 3.4629C77.7855 3.4629 78.4668 3.98178 78.4668 4.62173C78.4668 5.2618 77.7855 5.78057 76.9449 5.78057C76.1045 5.78057 75.4231 5.2618 75.4231 4.62173C75.4231 3.98178 76.1045 3.4629 76.9449 3.4629ZM53.189 7.74313C56.57 7.74313 59.3108 9.83017 59.3108 12.4047C59.3108 14.9792 56.57 17.0662 53.189 17.0662C49.808 17.0662 47.0672 14.9792 47.0672 12.4047V5.17736C47.8705 4.51089 48.829 4.10061 49.9411 4.0609C49.9411 6.70505 49.9411 9.34919 49.9411 11.9933C49.9411 13.9343 50.937 15.5724 52.9022 15.5724C55.1997 15.5724 56.5517 14.1542 56.5517 12.4047C56.5517 10.6552 54.6892 9.23696 52.3916 9.23696C51.978 9.23696 51.5786 9.28296 51.2015 9.36857C51.2015 9.36857 51.7246 8.33304 52.7218 7.75655C52.876 7.74771 53.0318 7.74313 53.189 7.74313ZM65.9984 8.84C66.8019 8.17353 67.7604 7.76326 68.8725 7.72354C68.8725 12.5809 68.8725 11.0924 68.8725 15.9498C68.069 16.6162 67.1105 17.0265 65.9984 17.0662C65.9984 12.2088 65.9984 13.6974 65.9984 8.84ZM67.4355 4.12947C68.2309 4.12947 68.8759 4.62056 68.8759 5.22634C68.8759 5.83211 68.2309 6.3231 67.4355 6.3231C66.6398 6.3231 65.9951 5.83211 65.9951 5.22634C65.9951 4.62056 66.6398 4.12947 67.4355 4.12947ZM61.2141 2.49402C62.0176 1.82755 62.9761 1.41728 64.0882 1.37756C64.0882 6.23493 64.0882 11.0924 64.0882 15.9498C63.2847 16.6162 62.3263 17.0265 61.2141 17.0662C61.2141 12.2088 61.2141 7.35139 61.2141 2.49402ZM42.4371 8.84C43.2406 8.17353 44.1991 7.76326 45.3112 7.72354C45.3112 12.5809 45.3112 11.0924 45.3112 15.9498C44.5077 16.6162 43.5492 17.0265 42.4371 17.0662C42.4371 12.2088 42.4371 13.6974 42.4371 8.84ZM43.8742 4.12947C44.6698 4.12947 45.3146 4.62056 45.3146 5.22634C45.3146 5.83211 44.6698 6.3231 43.8742 6.3231C43.0787 6.3231 42.4338 5.83211 42.4338 5.22634C42.4338 4.62056 43.0787 4.12947 43.8742 4.12947ZM37.6528 2.49402C38.4564 1.82755 39.4148 1.41728 40.5269 1.37756C40.5269 6.23493 40.5269 11.0924 40.5269 15.9498C39.7234 16.6162 38.765 17.0265 37.6528 17.0662C37.6528 12.2088 37.6528 7.35139 37.6528 2.49402Z" fill="#268ACB"/>
<path fill-rule="evenodd" clip-rule="evenodd" d="M23.5059 22.8859H24.9909C26.0042 22.8859 26.4278 22.543 26.4278 22.0449C26.4278 21.7141 26.1652 21.461 25.7094 21.3835C26.0579 21.3018 26.2401 21.0692 26.2401 20.8079C26.2401 20.3424 25.8059 20.0281 24.9052 20.0281H23.5059V22.8859ZM25.57 22.0244C25.57 22.2694 25.3609 22.3919 24.9213 22.3919H24.3475V21.6571H24.9213C25.3609 21.6571 25.57 21.7836 25.57 22.0244ZM25.4306 20.8446C25.4306 21.061 25.2322 21.1794 24.8515 21.1794H24.3475V20.5221H24.8515C25.2322 20.5221 25.4306 20.62 25.4306 20.8446ZM27.0737 20.0281V22.8859H27.9314V20.0281H27.0737ZM28.5988 21.457C28.5988 22.3552 29.3816 22.9348 30.4807 22.9348C31.1508 22.9348 31.6869 22.7389 32.0248 22.4123V21.31H30.4538V21.7795H31.2098V22.1715C31.0704 22.3144 30.797 22.3919 30.4913 22.3919C29.923 22.3919 29.462 22.0694 29.462 21.457C29.462 20.8446 29.9124 20.5221 30.4325 20.5221C30.8345 20.5221 31.1133 20.6568 31.301 20.9018L32.014 20.6364C31.6869 20.2118 31.1294 19.9791 30.4003 19.9791C29.3441 19.9791 28.5988 20.563 28.5988 21.457ZM61.2561 22.8859H62.7413C63.7546 22.8859 64.1781 22.543 64.1781 22.0449C64.1781 21.7141 63.9154 21.461 63.4597 21.3835C63.8083 21.3018 63.9905 21.0692 63.9905 20.8079C63.9905 20.3424 63.5561 20.0281 62.6554 20.0281H61.2561V22.8859ZM63.3204 22.0244C63.3204 22.2694 63.1112 22.3919 62.6715 22.3919H62.0979V21.6571H62.6715C63.1112 21.6571 63.3204 21.7836 63.3204 22.0244ZM63.181 20.8446C63.181 21.061 62.9825 21.1794 62.6019 21.1794H62.0979V20.5221H62.6019C62.9825 20.5221 63.181 20.62 63.181 20.8446ZM64.8241 20.0281V22.8859H65.6818V20.0281H64.8241ZM66.3491 21.457C66.3491 22.3552 67.1318 22.9348 68.2309 22.9348C68.9012 22.9348 69.4373 22.7389 69.775 22.4123V21.31H68.2042V21.7795H68.9602V22.1715C68.8208 22.3144 68.5472 22.3919 68.2417 22.3919C67.6734 22.3919 67.2123 22.0694 67.2123 21.457C67.2123 20.8446 67.6626 20.5221 68.1827 20.5221C68.5849 20.5221 68.8636 20.6568 69.0512 20.9018L69.7644 20.6364C69.4373 20.2118 68.8798 19.9791 68.1505 19.9791C67.0943 19.9791 66.3491 20.563 66.3491 21.457ZM34.1986 21.457C34.1986 22.3266 34.8796 22.9348 35.9464 22.9348C36.6273 22.9348 37.1367 22.6899 37.4101 22.3552L37.0241 22.1715C36.74 22.4736 36.4076 22.6083 35.9625 22.6083C35.2334 22.6083 34.6811 22.2041 34.6811 21.457C34.6811 20.7099 35.2334 20.3057 35.9625 20.3057C36.4076 20.3057 36.74 20.4404 37.0241 20.7426L37.4101 20.5588C37.1367 20.224 36.6273 19.9791 35.9464 19.9791C34.8796 19.9791 34.1986 20.5875 34.1986 21.457ZM38.0827 22.8859H38.5545V21.5264H40.5169V22.8859H40.9887V20.0281H40.5169V21.2079H38.5545V20.0281H38.0827V22.8859ZM45.0391 21.457C45.0391 20.6282 44.4278 19.9791 43.3662 19.9791C42.2994 19.9791 41.6881 20.6282 41.6881 21.457C41.6881 22.2857 42.2994 22.9348 43.3662 22.9348C44.4278 22.9348 45.0391 22.2857 45.0391 21.457ZM42.1706 21.457C42.1706 20.7507 42.6371 20.3057 43.3662 20.3057C44.09 20.3057 44.5565 20.7507 44.5565 21.457C44.5565 22.1633 44.09 22.6083 43.3662 22.6083C42.6371 22.6083 42.1706 22.1633 42.1706 21.457ZM45.7653 20.0281V22.8859H46.2371V20.0281H45.7653ZM46.9634 21.457C46.9634 22.3266 47.6443 22.9348 48.7112 22.9348C49.3921 22.9348 49.9014 22.6899 50.1749 22.3552L49.7888 22.1715C49.5047 22.4736 49.1723 22.6083 48.7273 22.6083C47.9982 22.6083 47.4458 22.2041 47.4458 21.457C47.4458 20.7099 47.9982 20.3057 48.7273 20.3057C49.1723 20.3057 49.5047 20.4404 49.7888 20.7426L50.1749 20.5588C49.9014 20.224 49.3921 19.9791 48.7112 19.9791C47.6443 19.9791 46.9634 20.5875 46.9634 21.457ZM50.8475 22.8859H53.2333V22.5675H51.3193V21.5713H52.9974V21.2529H51.3193V20.3465H53.1851V20.0281H50.8475V22.8859ZM55.1821 22.6083C54.7424 22.6083 54.3617 22.4858 54.024 22.2123L53.6647 22.4409C54.0669 22.7674 54.5709 22.9348 55.1766 22.9348C55.9808 22.9348 56.4581 22.6042 56.4581 22.1347C56.4581 21.6284 56.0452 21.412 55.1178 21.2243C54.5548 21.11 54.3189 20.9222 54.3189 20.714C54.3189 20.4731 54.5493 20.3057 55.0266 20.3057C55.3858 20.3057 55.6914 20.4241 55.9702 20.6364L56.3132 20.4201C55.9808 20.1383 55.5198 19.9791 55.0158 19.9791C54.2759 19.9791 53.8363 20.2853 53.8363 20.714C53.8363 21.0569 54.0883 21.3672 54.989 21.5427C55.6967 21.6816 55.9755 21.8203 55.9755 22.1551C55.9755 22.4123 55.67 22.6083 55.1821 22.6083ZM72.1366 22.8859H73.3589C74.4902 22.8859 75.1389 22.3511 75.1389 21.457C75.1389 20.567 74.4902 20.0281 73.3589 20.0281H72.1366V22.8859ZM72.6084 22.5675V20.3465H73.3214C74.1686 20.3465 74.6565 20.7507 74.6565 21.457C74.6565 22.1673 74.1686 22.5675 73.3214 22.5675H72.6084ZM75.8384 22.8859H78.2243V22.5675H76.3102V21.5713H77.9884V21.2529H76.3102V20.3465H78.1761V20.0281H75.8384V22.8859ZM80.0228 20.0281L78.5752 22.8859H79.0954L79.4491 22.147H81.1111L81.465 22.8859H81.9851L80.5375 20.0281H80.0228ZM80.2802 20.4037L80.9611 21.8285H79.5993L80.2802 20.4037ZM82.5506 22.8859H84.8828V22.5675H83.0223V20.0281H82.5506V22.8859ZM86.7242 22.6083C86.2846 22.6083 85.9039 22.4858 85.5661 22.2123L85.207 22.4409C85.609 22.7674 86.113 22.9348 86.7189 22.9348C87.5231 22.9348 88.0002 22.6042 88.0002 22.1347C88.0002 21.6284 87.5873 21.4123 86.6599 21.2243C86.0969 21.1102 85.861 20.9222 85.861 20.714C85.861 20.4731 86.0916 20.3057 86.5687 20.3057C86.928 20.3057 87.2335 20.4241 87.5123 20.6364L87.8555 20.4201C87.5231 20.1383 87.0619 19.9791 86.5579 19.9791C85.8182 19.9791 85.3786 20.2853 85.3786 20.714C85.3786 21.0569 85.6307 21.3667 86.5312 21.5427C87.2391 21.6811 87.5177 21.8203 87.5177 22.1551C87.5177 22.4123 87.2121 22.6083 86.7242 22.6083Z" fill="#268ACB"/>
</g>
<defs>
<clipPath id="clip0_91_421">
<rect width="88" height="23" fill="white"/>
</clipPath>
</defs>
</svg>
