<svg width="127" height="101" viewBox="0 0 127 101" fill="none" xmlns="http://www.w3.org/2000/svg">
<g clip-path="url(#clip0_87_86)">
<path d="M0.1875 70.7555C0.997455 70.7555 1.8027 70.7524 2.60304 70.7459C3.40337 70.7393 4.13731 70.7315 4.80465 70.7217C5.47217 70.7119 6.04243 70.6975 6.51545 70.6784C6.98867 70.659 7.30944 70.6333 7.47784 70.6011L7.00155 71.8856C6.78763 71.8277 6.53814 71.776 6.25309 71.731C6.00689 71.6924 5.70714 71.6554 5.35387 71.6199C5.00078 71.5846 4.59418 71.567 4.13404 71.567C3.97854 71.567 3.7922 71.5715 3.57501 71.5814C3.35802 71.5912 3.14899 71.6023 2.94814 71.6151C2.7148 71.6279 2.4782 71.6408 2.23852 71.6539V76.927C2.90604 76.9208 3.50862 76.9014 4.04658 76.8694C4.58437 76.8371 5.04124 76.8049 5.41701 76.7727C5.85774 76.7341 6.24657 76.689 6.58351 76.6374L6.28231 78.0378C5.83505 77.9801 5.37818 77.9252 4.9117 77.8736C4.50981 77.8285 4.07236 77.7884 3.59934 77.7529C3.12632 77.7174 2.6727 77.6998 2.23852 77.6998V83.7558C3.0031 83.7558 3.70619 83.7233 4.34778 83.659C4.98935 83.5946 5.55002 83.5205 6.02955 83.4369C6.58676 83.3467 7.09554 83.2407 7.55566 83.1183L7.2737 84.6829C7.19605 84.6763 7.07937 84.67 6.9237 84.6635C6.76821 84.6569 6.59495 84.6506 6.40369 84.6444C6.21263 84.6378 6.01161 84.6328 5.80113 84.6297C5.59048 84.6265 5.39126 84.6235 5.20327 84.6202C5.0153 84.6169 4.84838 84.6136 4.70267 84.6104C4.55681 84.6071 4.45156 84.6056 4.38679 84.6056H0.1875V84.567C0.226329 84.4318 0.263524 84.2643 0.299267 84.0645C0.334829 83.8651 0.365677 83.6172 0.391622 83.321C0.417567 83.0248 0.436982 82.6725 0.449865 82.2634C0.46293 81.8546 0.469277 81.3766 0.469277 80.8293V74.5416C0.469277 73.9943 0.46293 73.5162 0.449865 73.1074C0.436982 72.6984 0.417567 72.3443 0.391622 72.045C0.365677 71.7456 0.334829 71.496 0.299267 71.2965C0.263524 71.0968 0.226329 70.9295 0.1875 70.7943V70.7555Z" fill="#FFF3E5"/>
<path d="M21.7271 72.9645H21.5132C21.4613 72.8164 21.3787 72.6489 21.2653 72.4622C21.1519 72.2756 21.0028 72.1 20.8181 71.9358C20.6335 71.7716 20.4098 71.6348 20.1475 71.5255C19.8849 71.416 19.5756 71.3613 19.2192 71.3613C18.9015 71.3613 18.6197 71.4094 18.3735 71.5061C18.1271 71.6026 17.9213 71.7378 17.7562 71.9116C17.5909 72.0854 17.4661 72.2917 17.3819 72.5297C17.2978 72.768 17.2557 73.0319 17.2557 73.3219C17.2557 73.7853 17.3868 74.2281 17.6492 74.65C17.9117 75.0716 18.2405 75.4884 18.6359 75.9008C19.0312 76.3128 19.4589 76.7246 19.919 77.1369C20.3792 77.549 20.8068 77.9772 21.2022 78.4215C21.5974 78.8658 21.9263 79.331 22.1887 79.8171C22.4512 80.3032 22.5824 80.8263 22.5824 81.3865C22.5824 81.8051 22.5095 82.2252 22.3638 82.6468C22.2179 83.0687 21.9927 83.447 21.6881 83.7818C21.3836 84.1165 20.9915 84.3885 20.512 84.5978C20.0324 84.8071 19.4622 84.9117 18.8012 84.9117C18.4318 84.9117 18.0801 84.8782 17.7464 84.8104C17.4128 84.7429 17.1049 84.659 16.8231 84.5593C16.5411 84.4596 16.2884 84.3518 16.0648 84.2356C15.8413 84.1198 15.6582 84.0135 15.5156 83.917L15.7392 81.7824H15.9821C16.0534 82.0852 16.1701 82.3733 16.3321 82.6468C16.4941 82.9206 16.6934 83.1622 16.93 83.3712C17.1666 83.5805 17.4371 83.748 17.7415 83.8735C18.0462 83.9991 18.3799 84.0619 18.7427 84.0619C19.0733 84.0619 19.3698 84.012 19.6322 83.912C19.8947 83.8125 20.1199 83.674 20.3079 83.4969C20.4959 83.3198 20.6399 83.109 20.7404 82.8642C20.8408 82.6194 20.891 82.3524 20.891 82.0625C20.891 81.657 20.8166 81.2817 20.6675 80.9374C20.5185 80.5931 20.3224 80.2662 20.0794 79.9571C19.8363 79.6481 19.561 79.3486 19.2532 79.059C18.9454 78.7691 18.6294 78.4776 18.3055 78.1847C17.9814 77.8918 17.6655 77.5908 17.3576 77.2818C17.0499 76.9727 16.7745 76.6428 16.5313 76.2919C16.2884 75.9408 16.0924 75.5643 15.9433 75.1618C15.7943 74.7593 15.7197 74.3167 15.7197 73.8337C15.7197 73.3249 15.8186 72.8662 16.0162 72.4574C16.2138 72.0487 16.4764 71.6993 16.8035 71.4094C17.1308 71.1198 17.5019 70.8976 17.9166 70.743C18.3312 70.5886 18.7591 70.5112 19.1996 70.5112C19.5237 70.5112 19.8218 70.5369 20.0939 70.5886C20.3661 70.6399 20.6109 70.7011 20.8279 70.7719C21.0451 70.8429 21.2345 70.9137 21.3965 70.9845C21.5585 71.0555 21.6913 71.1132 21.7952 71.1583L21.7271 72.9645Z" fill="#FFF3E5"/>
<path d="M34.6074 71.6107C33.8428 71.6107 33.1526 71.6445 32.5371 71.7122C31.9214 71.78 31.3898 71.8523 30.9429 71.9296C30.4242 72.0263 29.9611 72.1323 29.5527 72.2482L29.8346 70.6836C29.9124 70.6901 30.029 70.6964 30.1847 70.703C30.3401 70.7095 30.5135 70.7158 30.7046 70.7221C30.8957 70.7287 31.0968 70.7337 31.3074 70.7367C31.5181 70.74 31.7173 70.743 31.9051 70.7463C32.093 70.7496 32.26 70.7529 32.4058 70.7561C32.5516 70.7594 32.657 70.7609 32.7217 70.7609H38.2721C38.337 70.7609 38.4422 70.7594 38.588 70.7561C38.7337 70.7529 38.9008 70.7496 39.0886 70.7463C39.2767 70.743 39.476 70.74 39.6866 70.7367C39.897 70.7337 40.098 70.7287 40.2892 70.7221C40.4803 70.7158 40.6537 70.7095 40.8091 70.703C40.9647 70.6964 41.0813 70.6901 41.1592 70.6836L41.4411 72.2482C41.0263 72.1323 40.5597 72.0263 40.0413 71.9296C39.5941 71.8523 39.0628 71.78 38.447 71.7122C37.8316 71.6445 37.1413 71.6107 36.3768 71.6107V80.8345C36.3768 81.3818 36.3846 81.8598 36.4008 82.2689C36.4171 82.6777 36.4366 83.0303 36.4592 83.3265C36.482 83.6227 36.5111 83.8705 36.5466 84.07C36.5824 84.2697 36.6196 84.437 36.6584 84.5722V84.611H34.3351V84.5722C34.3742 84.437 34.4099 84.2697 34.4421 84.07C34.4746 83.8705 34.5037 83.6227 34.5298 83.3265C34.5554 83.0303 34.5752 82.6777 34.5881 82.2689C34.6008 81.8598 34.6074 81.3818 34.6074 80.8345V71.6107Z" fill="#FFF3E5"/>
<path d="M48.7988 70.7643C49.609 70.7643 50.4141 70.7612 51.2144 70.7549C52.0149 70.7484 52.7488 70.7403 53.4162 70.7308C54.0837 70.7209 54.654 70.7066 55.127 70.6872C55.6 70.668 55.921 70.6421 56.0895 70.6099L55.6132 71.8946C55.3993 71.8365 55.1498 71.7848 54.8644 71.7398C54.6183 71.7012 54.3186 71.6644 53.9655 71.6289C53.6122 71.5934 53.2056 71.5758 52.7455 71.5758C52.5901 71.5758 52.4035 71.5806 52.1865 71.5901C51.9695 71.6 51.7604 71.611 51.5596 71.6241C51.3262 71.637 51.0899 71.6498 50.8498 71.6627V76.9361C51.5175 76.9298 52.1201 76.9104 52.658 76.8782C53.1957 76.8459 53.6527 76.8139 54.0286 76.7817C54.4692 76.7429 54.8581 76.6978 55.195 76.6464L54.8938 78.0468C54.4467 77.9889 53.9899 77.934 53.5232 77.8826C53.1214 77.8375 52.6839 77.7972 52.2108 77.762C51.7378 77.7265 51.2841 77.7088 50.8498 77.7088V83.7645C51.6146 83.7645 52.3178 83.7323 52.9594 83.6678C53.601 83.6036 54.1615 83.5295 54.6411 83.4459C55.1983 83.3558 55.707 83.2495 56.1671 83.1271L55.8852 84.6917C55.8074 84.6854 55.6908 84.6788 55.5354 84.6725C55.3798 84.666 55.2064 84.6597 55.0152 84.6531C54.8241 84.6466 54.6231 84.6418 54.4124 84.6385C54.2018 84.6355 54.0025 84.6322 53.8147 84.629C53.6269 84.6257 53.4601 84.6224 53.314 84.6194C53.1683 84.6161 53.0631 84.6146 52.9982 84.6146H48.7988V84.5758C48.8376 84.4406 48.8751 84.2733 48.9106 84.0736C48.9464 83.8741 48.977 83.626 49.0031 83.3298C49.029 83.0336 49.0483 82.6812 49.0614 82.2725C49.0744 81.8634 49.081 81.3854 49.081 80.8381V74.5504C49.081 74.0033 49.0744 73.5253 49.0614 73.1162C49.0483 72.7074 49.029 72.3531 49.0031 72.0538C48.977 71.7544 48.9464 71.505 48.9106 71.3053C48.8751 71.1055 48.8376 70.9383 48.7988 70.803V70.7643Z" fill="#FFF3E5"/>
<path d="M68.1931 71.6107C67.4285 71.6107 66.7383 71.6445 66.1228 71.7122C65.5071 71.78 64.9757 71.8523 64.5286 71.9296C64.0102 72.0263 63.5468 72.1323 63.1387 72.2482L63.4203 70.6836C63.4981 70.6901 63.6147 70.6964 63.7704 70.703C63.9258 70.7095 64.0992 70.7158 64.2903 70.7221C64.4817 70.7287 64.6824 70.7337 64.8931 70.7367C65.1038 70.74 65.303 70.743 65.4908 70.7463C65.6787 70.7496 65.8457 70.7529 65.9915 70.7561C66.1372 70.7594 66.2427 70.7609 66.3073 70.7609H71.8578C71.9227 70.7609 72.0279 70.7594 72.1739 70.7561C72.3194 70.7529 72.4865 70.7496 72.6743 70.7463C72.8624 70.743 73.0617 70.74 73.2723 70.7367C73.4827 70.7337 73.6837 70.7287 73.8749 70.7221C74.066 70.7158 74.2394 70.7095 74.395 70.703C74.5504 70.6964 74.6673 70.6901 74.7449 70.6836L75.0267 72.2482C74.612 72.1323 74.1453 72.0263 73.6269 71.9296C73.1798 71.8523 72.6485 71.78 72.0327 71.7122C71.4172 71.6445 70.727 71.6107 69.9625 71.6107V80.8345C69.9625 81.3818 69.9703 81.8598 69.9868 82.2689C70.0028 82.6777 70.0223 83.0303 70.0448 83.3265C70.0676 83.6227 70.0968 83.8705 70.1323 84.07C70.168 84.2697 70.2053 84.437 70.2441 84.5722V84.611H67.9211V84.5722C67.9601 84.437 67.9956 84.2697 68.028 84.07C68.0602 83.8705 68.0896 83.6227 68.1155 83.3265C68.1414 83.0303 68.1609 82.6777 68.1738 82.2689C68.1867 81.8598 68.1931 81.3818 68.1931 80.8345V71.6107Z" fill="#FFF3E5"/>
<path d="M82.4707 84.574C82.5097 84.4388 82.5452 84.2713 82.5777 84.0715C82.6101 83.8721 82.6393 83.6242 82.6651 83.328C82.6912 83.0318 82.7105 82.6794 82.7234 82.2704C82.7366 81.8616 82.743 81.3836 82.743 80.8363V74.5486C82.743 74.0013 82.7366 73.5232 82.7234 73.1144C82.7105 72.7056 82.6912 72.3512 82.6651 72.052C82.6393 71.7526 82.6101 71.503 82.5777 71.3035C82.5452 71.1037 82.5097 70.9365 82.4707 70.8012V70.7625H84.794V70.8012C84.7552 70.9365 84.7179 71.1037 84.6824 71.3035C84.6467 71.503 84.6173 71.7526 84.5947 72.052C84.5719 72.3512 84.5526 72.7056 84.5364 73.1144C84.5202 73.5232 84.5121 74.0013 84.5121 74.5486V80.8363C84.5121 81.3836 84.5202 81.8616 84.5364 82.2704C84.5526 82.6794 84.5719 83.0318 84.5947 83.328C84.6173 83.6242 84.6467 83.8721 84.6824 84.0715C84.7179 84.2713 84.7552 84.4388 84.794 84.574V84.6126H82.4707V84.574Z" fill="#FFF3E5"/>
<path d="M104.908 72.8877L104.82 72.9263C104.315 72.4626 103.707 72.0926 102.998 71.8158C102.288 71.5387 101.509 71.4002 100.66 71.4002C99.8433 71.4002 99.095 71.5276 98.4146 71.782C97.7343 72.0362 97.1492 72.4049 96.66 72.8877C96.1707 73.3706 95.79 73.963 95.5177 74.6649C95.2457 75.3667 95.1096 76.1651 95.1096 77.0602C95.1096 78.0453 95.2391 78.9646 95.4985 79.8177C95.7575 80.6708 96.1431 81.4098 96.6551 82.0342C97.1672 82.6588 97.807 83.1497 98.5748 83.5071C99.3427 83.8645 100.239 84.0431 101.263 84.0431C101.632 84.0431 102.002 84.0045 102.371 83.9272C102.74 83.8499 103.095 83.7356 103.435 83.5844C103.776 83.4331 104.096 83.2497 104.398 83.0338C104.699 82.8182 104.972 82.5719 105.219 82.2951L105.326 82.3626L104.548 84.333C104.062 84.5196 103.526 84.6629 102.939 84.7627C102.353 84.8627 101.762 84.9123 101.165 84.9123C99.9665 84.9123 98.8699 84.7403 97.8749 84.3957C96.8802 84.0511 96.025 83.5635 95.3088 82.9326C94.5927 82.3014 94.0355 81.5433 93.6368 80.6579C93.2383 79.7726 93.0391 78.7888 93.0391 77.7073C93.0391 77.0955 93.1184 76.4935 93.2771 75.9011C93.436 75.3087 93.6677 74.7453 93.9724 74.2108C94.2769 73.6766 94.6528 73.1857 95.0997 72.7379C95.5471 72.2906 96.0572 71.9027 96.6308 71.5742C97.2042 71.2458 97.8362 70.9899 98.5264 70.8065C99.2164 70.6229 99.9632 70.5312 100.767 70.5312C102.018 70.5312 103.178 70.7209 104.247 71.101L104.908 72.8877Z" fill="#FFF3E5"/>
<path d="M119.429 70.5312C120.511 70.5312 121.511 70.7065 122.427 71.0574C123.344 71.4085 124.137 71.9009 124.804 72.5351C125.472 73.1693 125.993 73.931 126.369 74.8196C126.745 75.7079 126.933 76.69 126.933 77.7652C126.933 78.377 126.862 78.979 126.719 79.5714C126.577 80.1638 126.368 80.7239 126.092 81.2519C125.817 81.78 125.478 82.2677 125.076 82.715C124.675 83.1628 124.216 83.5489 123.701 83.8741C123.186 84.1992 122.617 84.4536 121.995 84.637C121.373 84.8206 120.702 84.9123 119.983 84.9123C118.901 84.9123 117.901 84.7403 116.984 84.3957C116.067 84.0511 115.275 83.5635 114.607 82.9326C113.94 82.3014 113.418 81.5433 113.042 80.6579C112.666 79.7726 112.479 78.7888 112.479 77.7073C112.479 77.0955 112.55 76.4935 112.692 75.9011C112.835 75.3087 113.044 74.7453 113.319 74.2108C113.595 73.6766 113.932 73.1857 114.33 72.7379C114.729 72.2906 115.186 71.9027 115.701 71.5742C116.216 71.2458 116.786 70.9899 117.412 70.8065C118.037 70.6229 118.709 70.5312 119.429 70.5312ZM119.983 84.0431C120.702 84.0431 121.36 83.9144 121.956 83.657C122.552 83.3993 123.066 83.0258 123.497 82.5364C123.928 82.047 124.263 81.4498 124.503 80.7448C124.743 80.0396 124.863 79.2399 124.863 78.3448C124.863 77.3532 124.748 76.4338 124.517 75.5873C124.287 74.7405 123.946 74.0066 123.492 73.3852C123.038 72.7638 122.473 72.2777 121.796 71.9266C121.119 71.576 120.329 71.4002 119.429 71.4002C118.709 71.4002 118.052 71.5276 117.455 71.782C116.859 72.0362 116.346 72.4049 115.915 72.8877C115.484 73.3706 115.148 73.963 114.909 74.6649C114.669 75.3667 114.549 76.1651 114.549 77.0602C114.549 78.0453 114.662 78.9646 114.889 79.8177C115.116 80.6708 115.456 81.4098 115.91 82.0342C116.364 82.6588 116.931 83.1497 117.611 83.5071C118.292 83.8645 119.082 84.0431 119.983 84.0431Z" fill="#FFF3E5"/>
<path d="M48.1859 95.7395V97.9043H45.3683V95.7395H44.6094V100.868H45.3683V98.6063H48.1859V100.868H48.9449V95.7395H48.1859Z" fill="#FFF3E5"/>
<path d="M57.9227 100.971C59.3729 100.971 60.5902 99.7545 60.5902 98.3135C60.5902 96.8726 59.3729 95.6633 57.9227 95.6633C56.4725 95.6633 55.2402 96.8726 55.2402 98.3135C55.2402 99.7545 56.4725 100.971 57.9227 100.971ZM57.9227 100.277C56.8933 100.277 56.0218 99.3809 56.0218 98.3135C56.0218 97.2534 56.8933 96.3575 57.9227 96.3575C58.9521 96.3575 59.8163 97.2534 59.8163 98.3135C59.8163 99.3809 58.9521 100.277 57.9227 100.277Z" fill="#FFF3E5"/>
<path d="M66.9844 100.881H67.7433V97.2299L69.554 100.582L71.365 97.2299V100.881H72.124V95.7517H71.365L69.554 99.1038L67.7433 95.7517H66.9844V100.881Z" fill="#FFF3E5"/>
<path d="M82.5094 96.4537V95.7517H78.7148V100.881H82.5094V100.179H79.4814V98.6187H82.2163V97.9168H79.4814V96.4537H82.5094Z" fill="#FFF3E5"/>
<path d="M63.5607 59.7602C80.1597 59.7602 93.6156 46.3902 93.6156 29.8977C93.6156 13.405 80.1597 0.0351562 63.5607 0.0351562C46.962 0.0351562 33.5059 13.405 33.5059 29.8977C33.5059 46.3902 46.962 59.7602 63.5607 59.7602Z" fill="#FFF3E5"/>
<path d="M55.089 17.1662C55.0712 17.3071 55.0542 17.4559 55.0378 17.6129C55.0213 17.77 55.0094 17.9151 55.0018 18.0483C54.8423 18.0435 54.6426 18.0388 54.4022 18.0352C54.1619 18.031 53.9685 18.0292 53.822 18.0292C53.6752 18.0292 53.4666 18.0322 53.1959 18.037C52.9254 18.0418 52.7229 18.0459 52.589 18.0483C52.5814 18.0483 52.5743 18.0382 52.568 18.0179C52.5616 17.9982 52.5586 17.9802 52.5586 17.9653C52.5586 17.9528 52.5616 17.9366 52.568 17.9163C52.5743 17.896 52.5814 17.8847 52.589 17.8823C52.7381 17.865 52.8362 17.8333 52.8828 17.7879C52.9297 17.7431 52.953 17.6691 52.953 17.5657V15.9108C52.953 15.808 52.9297 15.734 52.8828 15.6886C52.8362 15.6432 52.7381 15.6122 52.589 15.5942C52.5814 15.5918 52.5743 15.5805 52.568 15.5602C52.5616 15.5405 52.5586 15.5238 52.5586 15.5112C52.5586 15.4963 52.5616 15.479 52.568 15.4586C52.5743 15.4383 52.5814 15.4282 52.589 15.4282C52.7229 15.4312 52.9153 15.4348 53.1655 15.4396C53.4159 15.4449 53.622 15.4473 53.784 15.4473C53.9206 15.4473 54.114 15.4455 54.3645 15.4419C54.6147 15.4378 54.8172 15.4336 54.9713 15.4282C54.9663 15.5315 54.9683 15.6647 54.9772 15.8278C54.986 15.9914 54.9929 16.1383 54.998 16.2691C54.998 16.2793 54.9886 16.29 54.9696 16.3014C54.9506 16.3121 54.9247 16.3181 54.8917 16.3181C54.874 16.3181 54.8588 16.3157 54.8461 16.3103C54.8337 16.3056 54.8274 16.3002 54.8274 16.2954C54.8071 16.1371 54.7407 15.9872 54.6281 15.8451C54.5156 15.7029 54.3569 15.6319 54.152 15.6319H53.9244C53.8737 15.6319 53.8245 15.6444 53.7764 15.6695C53.7282 15.6946 53.7044 15.7567 53.7044 15.8546V16.6347H53.8332C53.9596 16.6347 54.0616 16.597 54.1386 16.5218C54.2157 16.4459 54.2608 16.3468 54.2735 16.2237C54.2735 16.2166 54.2841 16.2094 54.3057 16.2028C54.3272 16.1969 54.3442 16.1939 54.3569 16.1939C54.3746 16.1939 54.3929 16.1969 54.4119 16.2028C54.4309 16.2094 54.4403 16.2166 54.4403 16.2237C54.4403 16.3169 54.4372 16.4035 54.4309 16.4841C54.4246 16.5642 54.4213 16.6472 54.4213 16.7326C54.4213 16.8204 54.4246 16.9028 54.4309 16.9798C54.4372 17.0563 54.4403 17.1399 54.4403 17.2301C54.4403 17.2379 54.4309 17.2444 54.4119 17.251C54.3929 17.257 54.3746 17.2606 54.3569 17.2606C54.3442 17.2606 54.3277 17.257 54.3074 17.251C54.2872 17.2444 54.276 17.2379 54.2735 17.2301C54.2583 17.0999 54.2157 16.9984 54.1462 16.9267C54.0768 16.855 53.9723 16.8192 53.8332 16.8192H53.7044V17.6225C53.7044 17.7127 53.7282 17.7724 53.7764 17.8017C53.8245 17.8303 53.8737 17.8447 53.9244 17.8447H54.1216C54.3138 17.8447 54.4846 17.7754 54.6337 17.6374C54.783 17.4995 54.8765 17.3292 54.9146 17.1286C54.9146 17.1238 54.9201 17.1196 54.9315 17.1172C54.943 17.1148 54.9561 17.1136 54.9713 17.1136C54.9992 17.1136 55.0263 17.1184 55.053 17.1286C55.0796 17.1387 55.0915 17.1513 55.089 17.1662Z" fill="#004441" stroke="#004441" stroke-width="3.88889e-05" stroke-miterlimit="2" stroke-linejoin="round"/>
<path d="M54.2617 20.2474C54.411 20.3352 54.5512 20.4403 54.6828 20.5622C54.8143 20.684 54.88 20.8381 54.88 21.0239C54.88 21.2902 54.7834 21.4993 54.59 21.6516C54.3963 21.8039 54.153 21.8797 53.8594 21.8797C53.6799 21.8797 53.5263 21.8552 53.3986 21.8062C53.2708 21.7573 53.1248 21.7173 52.9605 21.6874C52.958 21.5966 52.9567 21.4766 52.9567 21.3255C52.9567 21.175 52.9529 21.0418 52.9453 20.9259C52.9453 20.9181 52.956 20.9116 52.9775 20.905C52.9991 20.899 53.0173 20.896 53.0325 20.896C53.0503 20.896 53.0672 20.8984 53.0837 20.9032C53.1002 20.9086 53.1096 20.9157 53.1121 20.9259C53.1603 21.1499 53.2607 21.3344 53.4138 21.4802C53.5669 21.6259 53.7154 21.6987 53.8594 21.6987C54.0062 21.6987 54.1119 21.6665 54.1763 21.6026C54.2409 21.5387 54.2731 21.4509 54.2731 21.3404C54.2731 21.2048 54.2072 21.0908 54.0759 20.9976C53.9443 20.9044 53.8026 20.8142 53.6508 20.7264C53.4967 20.638 53.3537 20.5341 53.2221 20.4135C53.0906 20.2928 53.0249 20.1447 53.0249 19.9685C53.0249 19.735 53.1141 19.5379 53.2923 19.3784C53.4708 19.219 53.7154 19.1389 54.0265 19.1389C54.1656 19.1389 54.2858 19.1562 54.3869 19.1903C54.4881 19.2237 54.5968 19.2524 54.7132 19.2751C54.7157 19.3653 54.72 19.4782 54.7264 19.6143C54.7327 19.7499 54.7411 19.8616 54.7512 19.9494C54.7512 19.9572 54.7403 19.9643 54.7187 19.9703C54.6975 19.9769 54.6802 19.9799 54.6675 19.9799C54.6498 19.9799 54.6323 19.9775 54.6146 19.9721C54.5968 19.9673 54.5854 19.9596 54.5803 19.9494C54.5324 19.7535 54.4615 19.5994 54.3679 19.4877C54.2744 19.3761 54.1593 19.3199 54.0227 19.3199C53.9038 19.3199 53.8102 19.3515 53.742 19.4143C53.6736 19.477 53.6396 19.5564 53.6396 19.652C53.6396 19.7774 53.7033 19.8849 53.831 19.9739C53.9588 20.0635 54.1023 20.1543 54.2617 20.2474Z" fill="#004441" stroke="#004441" stroke-width="3.88889e-05" stroke-miterlimit="2" stroke-linejoin="round"/>
<path d="M55.262 23.8493C55.262 23.8618 55.2524 23.8732 55.2333 23.8833C55.2143 23.8935 55.1923 23.8982 55.1669 23.8982C55.1568 23.8982 55.1428 23.8965 55.1254 23.8929C55.1076 23.8887 55.0975 23.8845 55.0949 23.8792C55.0595 23.7412 54.9753 23.5883 54.8427 23.4216C54.7099 23.2544 54.5852 23.1708 54.4691 23.1708H54.412C54.3537 23.1708 54.3122 23.1828 54.2868 23.2066C54.2615 23.2305 54.2488 23.2676 54.2488 23.3177V25.1047C54.2488 25.2052 54.2729 25.2792 54.321 25.3268C54.3689 25.3747 54.4665 25.4064 54.6131 25.4213C54.6207 25.4213 54.6278 25.4321 54.6338 25.453C54.6402 25.4744 54.6435 25.4918 54.6435 25.5044C54.6435 25.5192 54.6402 25.5366 54.6338 25.5568C54.6278 25.5772 54.6207 25.5872 54.6131 25.5872C54.4916 25.5872 54.3672 25.5837 54.2394 25.5777C54.1116 25.5711 53.991 25.5681 53.8772 25.5681C53.7608 25.5681 53.6394 25.5711 53.5129 25.5777C53.3864 25.5837 53.2612 25.5872 53.1372 25.5872C53.1296 25.5872 53.1228 25.5772 53.1164 25.5568C53.1101 25.5366 53.107 25.5192 53.107 25.5044C53.107 25.4918 53.1101 25.4749 53.1164 25.4553C53.1228 25.4349 53.1296 25.4235 53.1372 25.4213C53.2865 25.4034 53.3846 25.3724 53.4313 25.3268C53.4782 25.2815 53.5015 25.2074 53.5015 25.1047V23.3177C53.5015 23.2628 53.4901 23.224 53.4673 23.2031C53.4447 23.1816 53.4016 23.1708 53.3382 23.1708H53.3081C53.2044 23.1708 53.0766 23.2478 52.9248 23.4025C52.7732 23.5572 52.6657 23.7161 52.6023 23.8792C52.5998 23.8869 52.5904 23.8923 52.574 23.8947C52.5575 23.897 52.5443 23.8982 52.5342 23.8982C52.5113 23.8982 52.4893 23.8935 52.4677 23.8833C52.4462 23.8732 52.4355 23.8618 52.4355 23.8493C52.4606 23.7239 52.488 23.5698 52.5169 23.3876C52.5461 23.2054 52.5669 23.0538 52.5795 22.9331C52.6683 22.948 52.8059 22.9606 52.9932 22.9707C53.1803 22.9809 53.4749 22.9862 53.8772 22.9862C54.2212 22.9862 54.5076 22.9809 54.7365 22.9707C54.9654 22.9606 55.1165 22.948 55.1897 22.9331C55.1974 23.0538 55.2075 23.1971 55.2202 23.3631C55.2328 23.5292 55.2468 23.691 55.262 23.8493Z" fill="#004441" stroke="#004441" stroke-width="3.88889e-05" stroke-miterlimit="2" stroke-linejoin="round"/>
<path d="M55.089 28.4747C55.0712 28.6155 55.0542 28.7644 55.0378 28.9213C55.0213 29.0784 55.0094 29.2235 55.0018 29.3568C54.8423 29.3515 54.6426 29.3472 54.4022 29.3437C54.1619 29.3399 53.9685 29.3376 53.822 29.3376C53.6752 29.3376 53.4666 29.3406 53.1959 29.3454C52.9254 29.3502 52.7229 29.3542 52.589 29.3568C52.5814 29.3568 52.5743 29.3467 52.568 29.3263C52.5616 29.3066 52.5586 29.2888 52.5586 29.2736C52.5586 29.261 52.5616 29.2449 52.568 29.2248C52.5743 29.2044 52.5814 29.193 52.589 29.1908C52.7381 29.1734 52.8362 29.1417 52.8828 29.0963C52.9297 29.0515 52.953 28.9774 52.953 28.8742V27.2191C52.953 27.1164 52.9297 27.0423 52.8828 26.997C52.8362 26.9516 52.7381 26.9207 52.589 26.9025C52.5814 26.9003 52.5743 26.8889 52.568 26.8685C52.5616 26.8489 52.5586 26.8323 52.5586 26.8197C52.5586 26.8048 52.5616 26.7874 52.568 26.767C52.5743 26.7466 52.5814 26.7373 52.589 26.7373C52.7229 26.7396 52.9153 26.7431 53.1655 26.7479C53.4159 26.7534 53.622 26.7557 53.784 26.7557C53.9206 26.7557 54.114 26.7539 54.3645 26.7496C54.6147 26.7461 54.8172 26.7421 54.9713 26.7373C54.9663 26.8398 54.9683 26.9731 54.9772 27.1368C54.986 27.2997 54.9929 27.4468 54.998 27.5775C54.998 27.5876 54.9886 27.5985 54.9696 27.6098C54.9506 27.6206 54.9247 27.6264 54.8917 27.6264C54.874 27.6264 54.8588 27.6241 54.8461 27.6189C54.8337 27.6141 54.8274 27.6093 54.8274 27.6037C54.8071 27.4456 54.7407 27.2957 54.6281 27.1534C54.5156 27.0113 54.3569 26.9403 54.152 26.9403H53.9244C53.8737 26.9403 53.8245 26.9529 53.7764 26.9778C53.7282 27.0035 53.7044 27.065 53.7044 27.163V27.943H53.8332C53.9596 27.943 54.0616 27.9055 54.1386 27.8302C54.2157 27.7549 54.2608 27.6551 54.2735 27.5322C54.2735 27.5249 54.2841 27.5179 54.3057 27.5113C54.3272 27.5053 54.3442 27.5022 54.3569 27.5022C54.3746 27.5022 54.3929 27.5053 54.4119 27.5113C54.4309 27.5179 54.4403 27.5249 54.4403 27.5322C54.4403 27.6254 54.4372 27.7118 54.4309 27.7926C54.4246 27.8725 54.4213 27.9556 54.4213 28.041C54.4213 28.1294 54.4246 28.2113 54.4309 28.2883C54.4372 28.3646 54.4403 28.4483 54.4403 28.5384C54.4403 28.5462 54.4309 28.5528 54.4119 28.5593C54.3929 28.5659 54.3746 28.5689 54.3569 28.5689C54.3442 28.5689 54.3277 28.5659 54.3074 28.5593C54.2872 28.5528 54.276 28.5462 54.2735 28.5384C54.2583 28.4082 54.2157 28.3067 54.1462 28.2352C54.0768 28.1634 53.9723 28.1276 53.8332 28.1276H53.7044V28.9308C53.7044 29.021 53.7282 29.0807 53.7764 29.1102C53.8245 29.1386 53.8737 29.153 53.9244 29.153H54.1216C54.3138 29.153 54.4846 29.0837 54.6337 28.9457C54.783 28.8079 54.8765 28.6382 54.9146 28.4369C54.9146 28.4321 54.9201 28.4281 54.9315 28.4256C54.943 28.4233 54.9561 28.4221 54.9713 28.4221C54.9992 28.4221 55.0263 28.4269 55.053 28.4369C55.0796 28.447 55.0915 28.4596 55.089 28.4747Z" fill="#004441" stroke="#004441" stroke-width="3.88889e-05" stroke-miterlimit="2" stroke-linejoin="round"/>
<path d="M55.262 31.3885C55.262 31.4008 55.2524 31.4121 55.2333 31.4225C55.2143 31.4326 55.1923 31.4373 55.1669 31.4373C55.1568 31.4373 55.1428 31.4356 55.1254 31.432C55.1076 31.4278 55.0975 31.4235 55.0949 31.4187C55.0595 31.2802 54.9753 31.128 54.8427 30.9608C54.7099 30.7936 54.5852 30.7099 54.4691 30.7099H54.412C54.3537 30.7099 54.3122 30.7218 54.2868 30.7457C54.2615 30.7696 54.2488 30.8067 54.2488 30.8568V32.6438C54.2488 32.744 54.2729 32.8181 54.321 32.8659C54.3689 32.9138 54.4665 32.9453 54.6131 32.9604C54.6207 32.9604 54.6278 32.971 54.6338 32.9926C54.6402 33.0135 54.6435 33.0307 54.6435 33.0433C54.6435 33.0584 54.6402 33.0763 54.6338 33.0959C54.6278 33.1163 54.6207 33.1264 54.6131 33.1264C54.4916 33.1264 54.3672 33.1228 54.2394 33.1168C54.1116 33.1103 53.991 33.1072 53.8772 33.1072C53.7608 33.1072 53.6394 33.1103 53.5129 33.1168C53.3864 33.1228 53.2612 33.1264 53.1372 33.1264C53.1296 33.1264 53.1228 33.1163 53.1164 33.0959C53.1101 33.0763 53.107 33.0584 53.107 33.0433C53.107 33.0307 53.1101 33.014 53.1164 32.9944C53.1228 32.974 53.1296 32.9627 53.1372 32.9604C53.2865 32.9425 53.3846 32.9113 53.4313 32.8659C53.4782 32.8206 53.5015 32.7466 53.5015 32.6438V30.8568C53.5015 30.8019 53.4901 30.7631 53.4673 30.7422C53.4447 30.7205 53.4016 30.7099 53.3382 30.7099H53.3081C53.2044 30.7099 53.0766 30.787 52.9248 30.9417C52.7732 31.0963 52.6657 31.2552 52.6023 31.4187C52.5998 31.426 52.5904 31.4313 52.574 31.4338C52.5575 31.4361 52.5443 31.4373 52.5342 31.4373C52.5113 31.4373 52.4893 31.4326 52.4677 31.4225C52.4462 31.4121 52.4355 31.4008 52.4355 31.3885C52.4606 31.263 52.488 31.1089 52.5169 30.9268C52.5461 30.7444 52.5669 30.5928 52.5795 30.4722C52.6683 30.4878 52.8059 30.5001 52.9932 30.5097C53.1803 30.52 53.4749 30.5253 53.8772 30.5253C54.2212 30.5253 54.5076 30.52 54.7365 30.5097C54.9654 30.5001 55.1165 30.4878 55.1897 30.4722C55.1974 30.5928 55.2075 30.7361 55.2202 30.9021C55.2328 31.0683 55.2468 31.23 55.262 31.3885Z" fill="#004441" stroke="#004441" stroke-width="3.88889e-05" stroke-miterlimit="2" stroke-linejoin="round"/>
<path d="M54.6126 36.8137C54.6126 36.8316 54.6093 36.8495 54.6032 36.8686C54.5969 36.887 54.5898 36.8966 54.5822 36.8966C54.4582 36.8966 54.3338 36.8938 54.2085 36.887C54.0833 36.8812 53.9626 36.8777 53.8463 36.8777C53.7299 36.8777 53.6085 36.8812 53.482 36.887C53.3555 36.8938 53.2303 36.8966 53.1063 36.8966C53.0987 36.8966 53.0919 36.8865 53.0856 36.8661C53.0792 36.8464 53.0762 36.8286 53.0762 36.8137C53.0762 36.8011 53.0792 36.785 53.0856 36.7646C53.0919 36.7444 53.0987 36.7331 53.1063 36.7306C53.2556 36.7132 53.3537 36.6817 53.4004 36.6364C53.4473 36.5916 53.4706 36.5167 53.4706 36.414V34.7592C53.4706 34.6564 53.4473 34.5824 53.4004 34.537C53.3537 34.4915 53.2556 34.4605 53.1063 34.4426C53.0987 34.4401 53.0919 34.4287 53.0856 34.4086C53.0792 34.3887 53.0762 34.3721 53.0762 34.3595C53.0762 34.3446 53.0792 34.3272 53.0856 34.3071C53.0919 34.2867 53.0987 34.2766 53.1063 34.2766C53.2303 34.2766 53.3555 34.2801 53.482 34.2862C53.6085 34.2927 53.7299 34.2958 53.8463 34.2958C53.9626 34.2958 54.0833 34.2927 54.2085 34.2862C54.3338 34.2801 54.4582 34.2766 54.5822 34.2766C54.5898 34.2766 54.5969 34.2862 54.6032 34.3051C54.6093 34.3237 54.6126 34.3424 54.6126 34.3595C54.6126 34.3721 54.6093 34.3895 54.6032 34.4104C54.5969 34.4318 54.5898 34.4426 54.5822 34.4426C54.4379 34.4575 54.3419 34.4892 54.294 34.537C54.2458 34.5846 54.2217 34.6587 54.2217 34.7592V36.414C54.2217 36.5145 54.2458 36.589 54.294 36.6364C54.3419 36.684 54.4379 36.7157 54.5822 36.7306C54.5898 36.7306 54.5969 36.7414 54.6032 36.7628C54.6093 36.7845 54.6126 36.8011 54.6126 36.8137Z" fill="#004441" stroke="#004441" stroke-width="3.88889e-05" stroke-miterlimit="2" stroke-linejoin="round"/>
<path d="M55.1385 39.7434C55.1233 39.8587 55.1051 40.0025 55.0835 40.1753C55.062 40.3473 55.0463 40.4776 55.0361 40.5652C54.9223 40.5652 54.7814 40.5922 54.613 40.6466C54.445 40.7002 54.2647 40.7272 54.0726 40.7272C53.8145 40.7272 53.5861 40.6889 53.3877 40.6126C53.1892 40.5355 53.0241 40.4345 52.8926 40.3091C52.761 40.1831 52.6632 40.039 52.5985 39.8773C52.5341 39.7154 52.502 39.5464 52.502 39.3701C52.502 39.0059 52.6467 38.684 52.9362 38.4049C53.2259 38.1261 53.6148 37.9871 54.1028 37.9871C54.3177 37.9871 54.4949 38.0054 54.6341 38.043C54.773 38.0813 54.9008 38.0999 55.0171 38.0999C55.0222 38.2205 55.0298 38.356 55.0399 38.5072C55.0501 38.6575 55.0602 38.7963 55.0703 38.9218C55.0703 38.9293 55.0589 38.9359 55.0361 38.9427C55.0133 38.9484 54.993 38.952 54.9755 38.952C54.9629 38.952 54.9482 38.9492 54.9317 38.9444C54.9155 38.9389 54.9046 38.9318 54.8995 38.9218C54.8668 38.7384 54.7725 38.5669 54.6168 38.4074C54.4615 38.2472 54.285 38.1679 54.0876 38.1679C53.7892 38.1679 53.5806 38.2815 53.4617 38.5089C53.3428 38.7364 53.2835 39.0238 53.2835 39.3701C53.2835 39.7093 53.3423 39.9902 53.4599 40.2128C53.5773 40.435 53.7816 40.5461 54.0726 40.5461C54.3053 40.5461 54.4949 40.4662 54.6417 40.3048C54.7882 40.1443 54.8982 39.9572 54.9717 39.7434C54.9743 39.7333 54.9849 39.7255 55.0039 39.7207C55.0229 39.7159 55.0387 39.7129 55.0513 39.7129C55.064 39.7129 55.0818 39.7167 55.1043 39.7224C55.1271 39.7292 55.1385 39.7358 55.1385 39.7434Z" fill="#004441" stroke="#004441" stroke-width="3.88889e-05" stroke-miterlimit="2" stroke-linejoin="round"/>
<path d="M55.3335 43.1399C55.3335 43.5167 55.204 43.8375 54.9446 44.1008C54.6856 44.3647 54.3193 44.4967 53.8465 44.4967C53.3735 44.4967 53.0067 44.3642 52.7461 44.099C52.4858 43.8338 52.3555 43.5144 52.3555 43.1399C52.3555 42.7653 52.4858 42.4412 52.7461 42.1676C53.0067 41.8934 53.3735 41.7566 53.8465 41.7566C54.3091 41.7566 54.6729 41.8916 54.937 42.1616C55.2014 42.4316 55.3335 42.7575 55.3335 43.1399ZM54.552 43.1399C54.552 42.7928 54.5015 42.5062 54.4004 42.2787C54.2993 42.051 54.1145 41.9377 53.8465 41.9377C53.5758 41.9377 53.3905 42.0523 53.2906 42.2822C53.1907 42.5122 53.1408 42.7983 53.1408 43.1399C53.1408 43.4892 53.1907 43.7723 53.2906 43.9897C53.3905 44.207 53.5758 44.3158 53.8465 44.3158C54.1145 44.3158 54.2993 44.2065 54.4004 43.9879C54.5015 43.7693 54.552 43.4869 54.552 43.1399Z" fill="#004441" stroke="#004441" stroke-width="3.88889e-05" stroke-miterlimit="2" stroke-linejoin="round"/>
<path d="M48.8566 45.64C50.225 45.4762 67.2567 45.1239 67.2567 45.1239C69.2187 45.1239 71.164 44.4889 73.0931 43.2192C75.0222 41.9501 76.4402 40.365 77.347 38.4647C77.4129 38.3171 77.5531 38.2435 77.7673 38.2435C77.9982 38.2435 78.2043 38.305 78.3855 38.4274C78.567 38.5506 78.6578 38.7022 78.6578 38.8825C77.3221 41.7166 76.2341 44.4197 75.393 46.9915C69.1774 46.795 64.7504 46.6966 62.1125 46.6966C59.5074 46.6966 55.0888 46.795 48.8566 46.9915C48.5928 46.9915 48.4609 46.762 48.4609 46.3034C48.4609 45.8938 48.5928 45.6727 48.8566 45.64ZM58.5345 28.84C58.5345 28.7664 58.5639 28.6954 58.6166 28.6435C58.6691 28.5909 58.7403 28.5616 58.8146 28.5616H65.2287C66.8775 28.5616 67.9943 28.1854 68.5797 27.4315C69.165 26.6779 69.5731 25.343 69.8038 23.4258C69.8038 23.1642 70.0347 23.0328 70.4963 23.0328C70.9579 23.0328 71.1889 23.1642 71.1889 23.4258C71.1889 24.2452 71.1394 25.2773 71.0406 26.522C70.9415 27.7181 70.892 28.6929 70.892 29.4467C70.892 30.2164 70.9415 31.199 71.0406 32.3954C71.1394 33.6728 71.1889 34.7216 71.1889 35.5405C71.1889 35.8027 70.9579 35.9334 70.4963 35.9334C70.0347 35.9334 69.8038 35.8027 69.8038 35.5405C69.5566 33.5421 69.1239 32.1415 68.5056 31.3388C67.8871 30.5356 66.7948 30.1348 65.2287 30.1348H58.8146C58.7403 30.1348 58.6691 30.1049 58.6166 30.053C58.5639 30.0008 58.5345 29.9298 58.5345 29.8565V28.84ZM61.8651 14.6779C61.1521 14.6779 50.2579 14.3506 48.8566 14.1869C48.5928 14.1869 48.4609 13.957 48.4609 13.4983C48.4609 13.0396 48.5928 12.8103 48.8566 12.8103C53.0114 13.0074 57.2653 13.1053 61.6177 13.1053C66.0034 13.1053 70.2656 13.0074 74.4039 12.8103C74.7831 15.3498 75.3355 17.8564 76.061 20.3297C76.061 20.6575 75.7723 20.8212 75.1953 20.8212C74.915 20.8212 74.7418 20.7065 74.6759 20.4772C73.4559 16.6112 70.8507 14.6779 66.861 14.6779H61.8651Z" fill="#004441" stroke="#004441" stroke-width="9.25926e-05" stroke-miterlimit="2" stroke-linejoin="round"/>
</g>
<defs>
<clipPath id="clip0_87_86">
<rect width="127" height="101" fill="white"/>
</clipPath>
</defs>
</svg>
