<svg width="88" height="23" viewBox="0 0 88 23" fill="none" xmlns="http://www.w3.org/2000/svg">
<g clip-path="url(#clip0_91_409)">
<path d="M35.9653 3.21716H37.9586V12.7837H41.3947V14.672H35.9736L35.9653 3.21716Z" fill="#000083"/>
<path d="M46.011 6.08718C47.067 6.07398 48.0682 6.5541 48.7176 7.38487V6.25766H50.5772V14.6886H48.7176V13.5614C48.0682 14.3922 47.067 14.8724 46.011 14.8592C43.6924 14.8592 41.9326 12.8835 41.9326 10.471C41.9326 8.05868 43.6924 6.08718 46.011 6.08718ZM46.3489 7.77576C44.8435 7.77576 43.8466 8.95707 43.8466 10.471C43.8466 11.9851 44.8599 13.1704 46.3489 13.1704C47.8377 13.1704 48.8509 11.9892 48.8509 10.471C48.8509 8.95292 47.8541 7.77576 46.3489 7.77576Z" fill="#000083"/>
<path d="M52.0244 13.2246L56.4572 7.94223H52.0909V6.25769H58.8591V7.74257L54.4431 13.0041H58.9593V14.6887H52.0244V13.2246Z" fill="#000083"/>
<path d="M63.6885 6.08718C64.7444 6.07398 65.7458 6.5541 66.3948 7.38487V6.25766H68.2548V14.6886H66.3948V13.5614C65.7458 14.3922 64.7444 14.8724 63.6885 14.8592C61.3701 14.8592 59.6143 12.8835 59.6143 10.471C59.6143 8.05868 61.3701 6.08718 63.6885 6.08718ZM64.0263 7.77576C62.5207 7.77576 61.5243 8.95707 61.5243 10.471C61.5243 11.9851 62.5376 13.1704 64.0263 13.1704C65.5149 13.1704 66.5283 11.9892 66.5283 10.471C66.5283 8.95292 65.5317 7.77576 64.0263 7.77576Z" fill="#000083"/>
<path d="M73.5672 6.08715C74.6221 6.0733 75.6223 6.55375 76.2695 7.38484V2.53918H78.1292V14.6886H76.2695V13.5614C75.6223 14.3926 74.6221 14.8729 73.5672 14.8592C71.2487 14.8592 69.4888 12.8834 69.4888 10.471C69.4888 8.05865 71.2487 6.08715 73.5672 6.08715ZM73.9049 7.77573C72.3994 7.77573 71.4028 8.95704 71.4028 10.471C71.4028 11.9851 72.4204 13.1704 73.9049 13.1704C75.3896 13.1704 76.407 11.9892 76.407 10.471C76.407 8.95288 75.4104 7.77573 73.9049 7.77573Z" fill="#000083"/>
<path d="M83.442 6.08721C84.4969 6.07336 85.4974 6.55381 86.1444 7.3849V6.25768H88V14.6887H86.1362V13.5615C85.4889 14.3927 84.4887 14.873 83.4338 14.8593C81.1154 14.8593 79.3555 12.8835 79.3555 10.471C79.3555 8.05871 81.1236 6.08721 83.442 6.08721ZM83.78 7.77579C82.2745 7.77579 81.2777 8.95709 81.2777 10.471C81.2777 11.9851 82.2954 13.1705 83.78 13.1705C85.2645 13.1705 86.282 11.9893 86.282 10.471C86.282 8.95294 85.2852 7.77579 83.78 7.77579Z" fill="#000083"/>
<path d="M14.2076 22.9999C14.006 23.0013 13.8074 22.95 13.632 22.8507C12.1297 21.9838 1.00284 15.0252 0.582747 14.8129C0.262902 14.6639 0.0445838 14.359 0.007112 14.009V4.24873C-0.00121507 3.88446 0.179311 3.54159 0.484744 3.34162L0.565452 3.29572C1.64178 2.62968 5.24516 0.436483 5.81503 0.120766C5.9458 0.0433536 6.09473 0.00171929 6.24675 0.00012207C6.38938 0.00171929 6.52945 0.0371776 6.65553 0.103516C6.65553 0.103516 11.6979 3.38176 12.4693 3.67458C13.0105 3.92258 13.6006 4.04621 14.1961 4.0363C14.8709 4.05046 15.5377 3.88808 16.1302 3.56555C16.8843 3.16933 21.7022 0.120766 21.754 0.120766C21.8755 0.0475063 22.0151 0.00981189 22.157 0.0116221C22.3091 0.0123674 22.4583 0.0540017 22.5887 0.132266C23.2449 0.493983 27.7118 3.22108 27.9016 3.34162C28.2158 3.53062 28.4062 3.87136 28.4025 4.23723V13.9975C28.3673 14.3484 28.1481 14.6543 27.8269 14.8014C27.4067 15.0309 16.3144 21.9895 14.7833 22.8392C14.6089 22.9425 14.4104 22.9979 14.2076 23V22.9999Z" fill="url(#paint0_linear_91_409)"/>
<path d="M14.1499 23H14.2074C14.4091 23.0013 14.6076 22.95 14.7831 22.8507C16.2854 21.9837 27.4065 15.0252 27.8267 14.8129C28.1479 14.6658 28.3671 14.3598 28.4022 14.009V4.24872C28.4041 4.08346 28.3667 3.92012 28.2929 3.77222L14.1499 11.5173V23Z" fill="url(#paint1_linear_91_409)"/>
<path d="M14.1006 22.8623H14.0437C13.8441 22.8637 13.6477 22.8128 13.4741 22.7146C11.9877 21.8569 0.985227 14.9725 0.569514 14.7623C0.251698 14.6169 0.0348738 14.3143 7.09291e-05 13.9671V4.31086C-0.0018507 4.1473 0.0353008 3.98577 0.108216 3.83936L14.1006 11.502V22.8623Z" fill="url(#paint2_linear_91_409)"/>
</g>
<defs>
<linearGradient id="paint0_linear_91_409" x1="0.00849984" y1="11.6098" x2="28.2446" y2="11.3905" gradientUnits="userSpaceOnUse">
<stop stop-color="#FFB800"/>
<stop offset="0.329412" stop-color="#F28000"/>
<stop offset="0.560784" stop-color="#F73B72"/>
<stop offset="0.780392" stop-color="#FB1CBD"/>
<stop offset="0.929412" stop-color="#FD08ED"/>
<stop offset="1" stop-color="#FF00FF"/>
</linearGradient>
<linearGradient id="paint1_linear_91_409" x1="7.95211" y1="20.7445" x2="36.728" y2="4.77033" gradientUnits="userSpaceOnUse">
<stop stop-color="#ED0A3F"/>
<stop offset="1" stop-color="#ED0A3F"/>
</linearGradient>
<linearGradient id="paint2_linear_91_409" x1="11.6194" y1="7.87692" x2="-3.99559" y2="13.6394" gradientUnits="userSpaceOnUse">
<stop stop-color="#ED5B00"/>
<stop offset="0.0862745" stop-color="#F37D00"/>
<stop offset="0.14902" stop-color="#EF6200"/>
<stop offset="0.501961" stop-color="#FB8A00"/>
<stop offset="1" stop-color="#F9A000"/>
</linearGradient>
<clipPath id="clip0_91_409">
<rect width="88" height="23" fill="white"/>
</clipPath>
</defs>
</svg>
