<svg width="72" height="23" viewBox="0 0 72 23" fill="none" xmlns="http://www.w3.org/2000/svg">
<g clip-path="url(#clip0_91_454)">
<path d="M32.2813 19.615C32.0959 19.5193 32.038 19.3279 32.1654 19.18C32.2929 19.0408 32.5477 18.9973 32.7446 19.093C32.8604 19.1539 32.9879 19.2148 33.1269 19.2757C34.0767 19.7107 34.9687 19.9282 35.6984 19.9282C36.3587 19.9282 36.9031 19.7368 37.239 19.3627C37.2622 19.3366 37.2854 19.3192 37.2854 19.3018C37.378 19.18 37.4591 19.0582 37.5054 18.9364C37.5981 18.684 37.5865 18.423 37.4475 18.1881C37.3085 17.9358 37.0189 17.7009 36.5788 17.5008C36.2892 17.3703 35.9185 17.2485 35.4783 17.1528C34.3547 16.9179 33.5323 16.5786 33.0805 16.1349C32.594 15.6389 32.5593 15.0473 33.0805 14.3252C33.428 13.8467 34.1346 13.5509 35.0382 13.4987C35.8143 13.4552 36.7525 13.5944 37.7024 13.9598C37.9109 14.0381 37.992 14.2295 37.8877 14.3774C37.7835 14.534 37.5286 14.5949 37.3317 14.5166C36.5208 14.2034 35.7448 14.0903 35.1077 14.1251C34.4937 14.1599 34.0188 14.3426 33.8219 14.6297C33.4744 15.1082 33.4744 15.4823 33.764 15.7694C34.0883 16.1001 34.7717 16.3611 35.71 16.5612C36.2197 16.6656 36.6483 16.8135 37.0074 16.9788C37.5981 17.2485 37.992 17.5878 38.2005 17.9532C38.4205 18.3273 38.4437 18.7363 38.2931 19.1191C38.2236 19.2931 38.1194 19.4758 37.9804 19.6411C37.9456 19.6759 37.9225 19.7107 37.9109 19.7281C37.4128 20.2849 36.6251 20.5633 35.6752 20.5633C34.7949 20.5633 33.764 20.3197 32.6751 19.8238C32.5709 19.7542 32.4319 19.6933 32.2813 19.615Z" fill="#EA501F"/>
<path d="M39.7432 13.7875C39.7432 13.6218 39.9202 13.491 40.1414 13.491C40.3626 13.491 40.5396 13.6218 40.5396 13.7875V20.2668C40.5396 20.4325 40.3626 20.5633 40.1414 20.5633C39.9202 20.5633 39.7432 20.4325 39.7432 20.2668V13.7875Z" fill="#EA501F"/>
<path d="M40.5733 17.8176C40.4214 17.9484 40.1645 17.9745 39.9776 17.8612C39.8024 17.7479 39.7673 17.5561 39.9192 17.4167C40.5616 16.8326 41.2858 16.4753 41.9983 16.3184C42.5123 16.205 43.0145 16.1963 43.4467 16.2835C43.9023 16.3794 44.2994 16.5711 44.5797 16.8675C44.8484 17.1464 45.0002 17.5038 45.0002 17.9309V20.2496C45.0002 20.4239 44.8133 20.5634 44.5797 20.5634C44.3461 20.5634 44.1592 20.4239 44.1592 20.2496V17.9309C44.1592 17.6346 44.0658 17.3992 43.9023 17.2249C43.7387 17.0593 43.5168 16.946 43.2365 16.8849C42.9444 16.8239 42.6057 16.8326 42.2436 16.9111C41.6829 17.0418 41.0989 17.3382 40.5733 17.8176Z" fill="#EA501F"/>
<path d="M49.1019 16.2249C49.9075 16.2249 50.6313 16.4688 51.1567 16.8608C51.6821 17.2529 52.009 17.793 52.009 18.3941C52.009 18.9952 51.6821 19.5354 51.1567 19.9274C50.6313 20.3194 49.9075 20.5634 49.1019 20.5634C48.2963 20.5634 47.5725 20.3194 47.0471 19.9274C46.5217 19.5354 46.1948 18.9952 46.1948 18.3941C46.1948 17.793 46.5217 17.2529 47.0471 16.8608C47.5725 16.4688 48.308 16.2249 49.1019 16.2249ZM50.573 17.2964C50.1994 17.0176 49.674 16.8434 49.1019 16.8434C48.5298 16.8434 48.0161 17.0176 47.6309 17.2964C47.2573 17.5752 47.0237 17.9672 47.0237 18.3941C47.0237 18.821 47.2573 19.213 47.6309 19.4918C48.0045 19.7706 48.5298 19.9448 49.1019 19.9448C49.674 19.9448 50.1877 19.7706 50.573 19.4918C50.9466 19.213 51.1801 18.821 51.1801 18.3941C51.1801 17.9672 50.9466 17.5752 50.573 17.2964Z" fill="#EA501F"/>
<path d="M53.2036 16.5376C53.2036 16.3638 53.3903 16.2249 53.6238 16.2249C53.8572 16.2249 54.0439 16.3638 54.0439 16.5376V16.9284C54.0789 16.9024 54.1023 16.8763 54.1373 16.8589C54.6625 16.4681 55.3861 16.2249 56.1914 16.2249C56.9967 16.2249 57.7203 16.4681 58.2454 16.8589C58.7706 17.2498 59.0974 17.7884 59.0974 18.3877C59.0974 18.987 58.7706 19.5256 58.2454 19.9165C57.7203 20.3073 56.9967 20.5506 56.1914 20.5506C55.3861 20.5506 54.6625 20.3073 54.1373 19.9165C54.1023 19.8904 54.0789 19.8643 54.0439 19.847V22.6873C54.0439 22.8611 53.8572 23 53.6238 23C53.3903 23 53.2036 22.8611 53.2036 22.6873V16.5376ZM57.6502 17.2932C57.2768 17.0153 56.7516 16.8416 56.1797 16.8416C55.6078 16.8416 55.0943 17.0153 54.7092 17.2932C54.3357 17.5712 54.1023 17.9621 54.1023 18.3877C54.1023 18.8133 54.3357 19.2042 54.7092 19.4822C55.0826 19.7601 55.6078 19.9338 56.1797 19.9338C56.7516 19.9338 57.2651 19.7601 57.6502 19.4822C58.0237 19.2042 58.2571 18.8133 58.2571 18.3877C58.2571 17.9621 58.0237 17.5712 57.6502 17.2932Z" fill="#EA501F"/>
<path d="M62.9815 16.2249C63.6933 16.2249 64.3466 16.4339 64.825 16.7998C65.2217 17.0959 65.385 17.3921 65.525 17.7057C65.8867 18.5855 65.1983 18.5506 64.9883 18.5506H61.1264C61.1614 18.7597 61.2314 18.9513 61.3131 19.1256C61.4648 19.3956 61.6865 19.5959 61.9665 19.7353C62.2582 19.8747 62.6315 19.9444 63.0632 19.9444C63.5299 19.9444 64.0783 19.8486 64.685 19.6569C64.895 19.5872 65.14 19.6656 65.2333 19.8224C65.3267 19.9792 65.2217 20.1622 65.0117 20.2318C64.3116 20.4496 63.6583 20.5541 63.0749 20.5629C62.4798 20.5716 61.9548 20.467 61.5231 20.258C61.0914 20.0489 60.7181 19.7615 60.5431 19.3608C60.1464 18.481 60.1347 17.6099 61.1381 16.7998C61.6048 16.4252 62.2698 16.2249 62.9815 16.2249ZM64.2416 17.244C63.9033 17.0001 63.4599 16.852 62.9815 16.852C62.5032 16.852 62.0598 17.0001 61.7215 17.244C61.4765 17.4269 61.2781 17.6534 61.1731 17.9148H64.8017C64.6733 17.6534 64.4866 17.4269 64.2416 17.244Z" fill="#EA501F"/>
<path d="M69.3531 16.2249C70.0648 16.2249 70.7182 16.4339 71.1966 16.7998C71.5933 17.0959 71.7566 17.3921 71.8966 17.7057C72.2583 18.5855 71.5699 18.5506 71.3599 18.5506H67.498C67.533 18.7597 67.603 18.9513 67.6847 19.1256C67.8364 19.3956 68.058 19.5959 68.3381 19.7353C68.6297 19.8747 69.0031 19.9444 69.4348 19.9444C69.9015 19.9444 70.4499 19.8486 71.0566 19.6569C71.2666 19.5872 71.5116 19.6656 71.6049 19.8224C71.6983 19.9792 71.5933 20.1622 71.3833 20.2318C70.6832 20.4496 70.0298 20.5541 69.4465 20.5629C68.8514 20.5716 68.3264 20.467 67.8947 20.258C67.463 20.0489 67.0897 19.7615 66.9146 19.3608C66.518 18.481 66.5063 17.6099 67.5097 16.7998C67.9764 16.4252 68.6414 16.2249 69.3531 16.2249ZM70.6132 17.244C70.2749 17.0001 69.8315 16.852 69.3531 16.852C68.8748 16.852 68.4314 17.0001 68.093 17.244C67.848 17.4269 67.6497 17.6534 67.5447 17.9148H71.1732C71.0449 17.6534 70.8582 17.4269 70.6132 17.244Z" fill="#EA501F"/>
<path d="M2.90708 7.01881H8.90443C9.08761 5.5033 9.6531 4.14232 10.4655 3.09038C11.5407 1.69969 13.0699 0.843872 14.7982 0.843872C16.5265 0.843872 18.0478 1.70563 19.131 3.09038C19.9434 4.13638 20.5088 5.5033 20.692 7.01881H26.6814C27.3903 7.01881 28.0274 7.45266 27.9717 7.9816L26.769 20.5038C26.6177 22.0728 25.2956 22.9702 23.3761 22.9702H6.22035C4.08584 22.9702 2.95487 21.8589 2.82743 20.5038L1.61681 7.98754C1.56903 7.4586 2.19823 7.01881 2.90708 7.01881ZM10.4018 7.01881H19.1788C19.0035 5.70537 18.5177 4.54051 17.8248 3.64904C17.0283 2.60899 15.9451 1.96118 14.7982 1.96118C13.6434 1.96118 12.5681 2.60899 11.7558 3.65498C11.0628 4.54051 10.585 5.71131 10.4018 7.01881Z" fill="#EA501F"/>
<path d="M10.4417 18.5783C10.1629 18.4357 10.0913 18.1563 10.2824 17.9483C10.4736 17.7403 10.8479 17.6868 11.1267 17.8295C11.3019 17.9186 11.4851 18.0078 11.6842 18.0969C13.0859 18.7328 14.3762 19.0478 15.4514 19.0478C16.4231 19.0478 17.2116 18.7744 17.7134 18.2217C17.7452 18.1801 17.7771 18.1563 17.7851 18.1385C17.9284 17.9662 18.032 17.7819 18.1036 17.6036C18.247 17.2351 18.2231 16.8548 18.024 16.5101C17.809 16.1475 17.3948 15.7969 16.7497 15.5057C16.3196 15.3096 15.7859 15.1372 15.1408 15.0065C13.5001 14.6618 12.2895 14.1744 11.6364 13.5207C10.9196 12.8016 10.8638 11.9339 11.6284 10.8819C12.1382 10.1866 13.1815 9.75271 14.5036 9.67545C15.6426 9.61008 17.0125 9.81215 18.4063 10.3411C18.709 10.454 18.8284 10.7274 18.6691 10.9532C18.5098 11.1791 18.1514 11.2682 17.8488 11.1494C16.6621 10.6977 15.5311 10.5253 14.5913 10.5788C13.6913 10.6323 13.0063 10.8938 12.7036 11.3098C12.1939 12.0052 12.2019 12.5519 12.616 12.968C13.0939 13.4494 14.0895 13.8238 15.4753 14.115C16.224 14.2755 16.8612 14.4775 17.3868 14.7152C18.255 15.1075 18.8364 15.6008 19.147 16.1357C19.4656 16.6884 19.5054 17.2708 19.2904 17.8413C19.1948 18.0969 19.0435 18.3525 18.8364 18.6021C18.7886 18.6556 18.7567 18.6972 18.7328 18.7269C17.9921 19.5411 16.8532 19.9452 15.4674 19.9512C14.1691 19.9512 12.6559 19.5946 11.0629 18.8695C10.8638 18.7863 10.6567 18.6912 10.4417 18.5783Z" fill="white"/>
</g>
<defs>
<clipPath id="clip0_91_454">
<rect width="72" height="23" fill="white"/>
</clipPath>
</defs>
</svg>
