<svg width="88" height="23" viewBox="0 0 88 23" fill="none" xmlns="http://www.w3.org/2000/svg">
<path fill-rule="evenodd" clip-rule="evenodd" d="M12.3191 5.26228C13.5198 4.72748 14.9761 4.43565 16.3087 4.33279L17.8064 4.21626C19.4471 4.09051 21.0885 4.16774 22.7311 4.16774H23.6317V4.97079C23.6317 8.53635 23.6317 12.1029 23.6317 15.6692V16.0792C23.6317 19.7606 20.2557 22.7709 16.1259 22.7709H0.996582V4.16774H1.89682C3.54093 4.16774 5.17662 4.07137 6.82035 4.18516L8.31768 4.28597C9.74028 4.38131 11.0425 4.68921 12.3191 5.26228Z" fill="#4D4C4B"/>
<path fill-rule="evenodd" clip-rule="evenodd" d="M1.89697 4.97072V14.1354V15.6691V16.0792V21.9681H8.50025H9.53846H16.126C19.7592 21.9681 22.7312 19.3174 22.7312 16.0792V15.6691C22.7312 12.1237 22.7312 8.66511 22.7312 4.97072C21.1527 4.97072 19.4855 4.93621 17.8847 5.01686L16.3866 5.13202C14.9207 5.29092 13.4376 5.59608 12.3139 6.17428C11.1009 5.54926 9.77799 5.23864 8.25 5.08589L6.75228 4.98439C5.1189 4.91673 3.44451 4.97072 1.89697 4.97072Z" fill="#5FB74E"/>
<path fill-rule="evenodd" clip-rule="evenodd" d="M3.76465 21.9682H8.5H9.53821H16.1258C17.7354 21.9682 19.214 21.4477 20.3622 20.5876C19.0212 17.808 15.9215 15.8629 12.3133 15.8629C8.13247 15.8629 4.63653 18.4744 3.76465 21.9682Z" fill="#89C45F"/>
<path fill-rule="evenodd" clip-rule="evenodd" d="M12.314 21.9681L16.2031 21.9169C17.7913 21.9169 19.2369 21.4176 20.3628 20.5879C21.8127 19.5197 22.7313 17.9019 22.7313 16.0792V15.6691C22.7313 12.1237 22.7313 8.66511 22.7313 4.97072C21.1527 4.97072 19.4856 4.93621 17.8848 5.01685L16.3867 5.13201C14.9208 5.29092 13.4376 5.59608 12.314 6.17427V21.9681Z" fill="#4A9E4B"/>
<path fill-rule="evenodd" clip-rule="evenodd" d="M12.314 21.9681H16.1502C17.7599 21.9681 19.2146 21.448 20.3628 20.5879C19.0364 17.8398 15.8708 15.9066 12.314 15.8643V21.9681Z" fill="#5FB74E"/>
<path fill-rule="evenodd" clip-rule="evenodd" d="M17.8844 4.46053C17.5981 1.9533 15.222 0 12.3373 0C9.45382 0 7.07886 1.93655 6.75195 4.4291L8.24967 4.53093C8.51449 2.73072 10.2353 1.33888 12.3316 1.33888C14.4268 1.33888 16.1629 2.75464 16.3863 4.57535L17.8844 4.46053Z" fill="#4D4C4B"/>
<path fill-rule="evenodd" clip-rule="evenodd" d="M14.7502 16.6465C14.0976 17.2619 13.4457 17.8777 12.7934 18.4939L12.3136 18.9473L11.8345 18.4939C11.1819 17.8788 10.53 17.2619 9.87768 16.6465L9.54004 16.327L9.78685 15.947C10.31 15.1426 11.2888 14.7096 12.3136 14.7096C13.3395 14.7096 14.3176 15.1426 14.8411 15.947L15.0883 16.327L14.7502 16.6465Z" fill="#4D4C4B"/>
<path fill-rule="evenodd" clip-rule="evenodd" d="M14.2695 16.2428C13.6187 16.8586 12.9653 17.4737 12.3134 18.0902C11.6615 17.4737 11.0092 16.8586 10.3569 16.2428C10.7689 15.6096 11.5423 15.2966 12.3134 15.298C13.0849 15.2966 13.8582 15.6096 14.2695 16.2428Z" fill="#FDF8B4"/>
<path fill-rule="evenodd" clip-rule="evenodd" d="M14.2696 16.2428C13.6188 16.8586 12.9654 17.4737 12.3135 18.0902V15.298C13.0849 15.2966 13.8583 15.6096 14.2696 16.2428Z" fill="#FCD066"/>
<path fill-rule="evenodd" clip-rule="evenodd" d="M7.42512 7.28723C10.3474 7.28723 12.7173 9.40183 12.7173 12.0065C12.7173 14.6121 10.3474 16.7257 7.42512 16.7257C4.50251 16.7257 2.1333 14.6121 2.1333 12.0065C2.1333 9.40183 4.50251 7.28723 7.42512 7.28723Z" fill="#4D4C4B"/>
<path fill-rule="evenodd" clip-rule="evenodd" d="M7.42517 8.09033C9.85072 8.09033 11.8175 9.84406 11.8175 12.0065C11.8175 14.1686 9.85072 15.9227 7.42517 15.9227C4.99886 15.9227 3.0332 14.1686 3.0332 12.0065C3.0332 9.84406 4.99886 8.09033 7.42517 8.09033Z" fill="#EEEFEE"/>
<path fill-rule="evenodd" clip-rule="evenodd" d="M7.42507 8.09033C9.42675 8.09033 11.1161 9.285 11.6453 10.9181C11.1161 12.5505 9.42675 13.7455 7.42507 13.7455C5.42263 13.7455 3.73483 12.5505 3.20557 10.9181C3.73483 9.285 5.42263 8.09033 7.42507 8.09033Z" fill="#FEFEFE"/>
<path fill-rule="evenodd" clip-rule="evenodd" d="M17.2023 7.28723C20.1253 7.28723 22.4941 9.40183 22.4941 12.0065C22.4941 14.6121 20.1253 16.7257 17.2023 16.7257C14.2796 16.7257 11.9097 14.6131 11.9097 12.0065C11.9097 9.40183 14.2796 7.28723 17.2023 7.28723Z" fill="#4D4C4B"/>
<path fill-rule="evenodd" clip-rule="evenodd" d="M17.2025 8.09033C19.6277 8.09033 21.5949 9.84406 21.5949 12.0065C21.5949 14.1686 19.6277 15.9227 17.2025 15.9227C14.777 15.9227 12.8105 14.1686 12.8105 12.0065C12.8105 9.84406 14.777 8.09033 17.2025 8.09033Z" fill="#EEEFEE"/>
<path fill-rule="evenodd" clip-rule="evenodd" d="M17.2022 8.09033C19.2035 8.09033 20.8928 9.285 21.4213 10.9181C20.8932 12.5505 19.2035 13.7455 17.2022 13.7455C15.1998 13.7455 13.5112 12.5505 12.9819 10.9181C13.5112 9.285 15.1998 8.09033 17.2022 8.09033Z" fill="#FEFEFE"/>
<path fill-rule="evenodd" clip-rule="evenodd" d="M7.9768 9.57104C9.54312 9.57104 10.8139 10.7035 10.8139 12.0988C10.8139 13.4964 9.54312 14.6286 7.9768 14.6286C6.40933 14.6286 5.13965 13.4964 5.13965 12.0988C5.13965 11.6334 5.28183 11.1973 5.52864 10.8221C5.73099 11.2687 6.22078 11.5821 6.79526 11.5821C7.54948 11.5821 8.1619 11.0381 8.1619 10.3652C8.1619 10.0621 8.03773 9.78599 7.83385 9.57378C7.88099 9.57105 7.92928 9.57104 7.9768 9.57104Z" fill="#4D4C4B"/>
<path fill-rule="evenodd" clip-rule="evenodd" d="M16.6495 9.57104C18.2173 9.57104 19.4874 10.7035 19.4874 12.0988C19.4874 13.4964 18.2173 14.6286 16.6495 14.6286C15.0835 14.6286 13.8135 13.4964 13.8135 12.0988C13.8135 11.6334 13.9549 11.1973 14.2009 10.8221C14.4044 11.2687 14.8954 11.5821 15.4691 11.5821C16.2233 11.5821 16.8346 11.0381 16.8346 10.3652C16.8346 10.0621 16.7119 9.78599 16.5073 9.57378C16.5552 9.57105 16.602 9.57104 16.6495 9.57104Z" fill="#4D4C4B"/>
<path fill-rule="evenodd" clip-rule="evenodd" d="M59.6708 15.9955C59.0376 16.5686 58.2796 16.857 57.4016 16.857C56.6914 16.857 56.0878 16.7275 55.4716 16.4087V15.0947C55.9675 15.3941 56.5895 15.6794 57.2042 15.6794C58.485 15.6794 59.2477 14.8935 59.2477 13.7794C59.2477 12.664 58.4586 11.8545 57.1774 11.8545C56.6044 11.8545 56.1411 12.038 55.7785 12.4057C55.3899 12.8045 55.1891 13.3738 55.1891 14.1266V19.3157H55.0925C54.3866 19.3157 53.814 18.8052 53.814 18.1761V13.9322C53.814 12.1313 55.0492 10.6776 57.1712 10.6776C58.2186 10.6776 59.0698 10.9968 59.7148 11.6385C60.3215 12.2379 60.6227 12.9982 60.6227 13.9124C60.6227 14.7263 60.3054 15.4218 59.6708 15.9955ZM30.519 16.7357C29.1749 16.7357 28.5073 15.9203 28.5073 14.7814V10.4606C28.5073 9.83114 29.0795 9.32094 29.7858 9.32094H29.882V10.7986H32.2049V11.9758H29.882V14.9177C29.882 15.418 30.1327 15.5588 30.6684 15.5588H32.2049V16.7357H30.519ZM38.5035 15.9853C37.8236 16.5662 37.0077 16.857 36.0591 16.857C35.1198 16.857 34.3077 16.5659 33.629 15.9853C32.9476 15.4026 32.6076 14.6611 32.6076 13.7671C32.6076 12.0236 34.1011 10.6776 36.0591 10.6776C36.9992 10.6776 37.8129 10.9708 38.4966 11.5551C39.1822 12.1415 39.5248 12.881 39.5248 13.7671C39.5248 14.6611 39.1845 15.4026 38.5035 15.9853ZM44.9305 12.227C44.7289 12.5287 44.5725 12.745 44.4625 12.8756C44.341 13.0174 44.2215 13.1312 44.103 13.2094C45.0585 13.4849 45.4141 14.075 45.4141 14.9543L45.4145 16.7357H45.3175C44.6116 16.7357 44.039 16.2255 44.039 15.596V15.0749C44.039 14.5059 43.7531 14.1194 43.0763 14.1194H41.8277V16.7357H41.7315C41.0256 16.7357 40.453 16.2255 40.453 15.596V9.27378C40.453 8.64433 41.0256 8.13379 41.7315 8.13379H41.8277V12.9299H42.2343C42.6804 12.9299 42.9744 12.7942 43.1426 12.5366L44.2973 10.7986L45.864 10.7975L44.9305 12.227ZM52.0274 15.9853C51.3482 16.5662 50.5316 16.857 49.583 16.857C48.6441 16.857 47.8324 16.5659 47.1529 15.9853C46.4715 15.4026 46.1319 14.6611 46.1319 13.7671C46.1319 12.0236 47.625 10.6776 49.583 10.6776C50.5235 10.6776 51.3371 10.9708 52.0205 11.5551C52.7061 12.1415 53.0487 12.881 53.0487 13.7671C53.0487 14.6611 52.7088 15.4026 52.0274 15.9853ZM51.0351 12.3855C50.6561 12.0318 50.1744 11.8545 49.583 11.8545C48.3179 11.8545 47.561 12.677 47.561 13.7671C47.561 14.8422 48.3363 15.6794 49.583 15.6794C50.8312 15.6794 51.6054 14.8422 51.6054 13.7671C51.6054 13.1964 51.4138 12.7385 51.0351 12.3855ZM37.5109 12.3855C37.1318 12.0318 36.6505 11.8545 36.0591 11.8545C34.794 11.8545 34.0371 12.677 34.0371 13.7671C34.0371 14.8422 34.8124 15.6794 36.0591 15.6794C37.3066 15.6794 38.0819 14.8422 38.0819 13.7671C38.0819 13.1964 37.8899 12.7385 37.5109 12.3855ZM74.5563 15.9518C73.9251 16.5556 73.1134 16.857 72.1281 16.857C71.0895 16.857 70.2425 16.5371 69.5979 15.8957C68.992 15.2888 68.6904 14.5281 68.6904 13.6219C68.6904 12.0175 70.0796 10.6776 71.9058 10.6776C72.611 10.6776 73.223 10.8095 73.8416 11.1123V12.4395C73.3453 12.1402 72.7229 11.8545 72.1093 11.8545C70.8285 11.8545 70.0655 12.6405 70.0655 13.7548C70.0655 14.8548 70.8726 15.6794 72.1354 15.6794C72.7072 15.6794 73.1782 15.4881 73.5549 15.1036C73.9293 14.7209 74.124 14.1587 74.124 13.4039V9.27378C74.124 8.64433 74.6962 8.13379 75.4025 8.13379H75.4987V13.5973C75.4987 14.5599 75.1867 15.3473 74.5563 15.9518ZM78.4386 10.0939C78.2941 10.2381 78.0871 10.3044 77.8346 10.3044C77.3628 10.3044 77.0255 9.9938 77.0255 9.57655C77.0255 9.14905 77.3571 8.86064 77.8346 8.86064C78.2948 8.86064 78.6444 9.16477 78.6444 9.57655C78.6444 9.78022 78.5777 9.95484 78.4386 10.0939ZM85.4236 13.4039C85.4236 12.9207 85.2185 12.5383 84.8062 12.2482C84.4352 11.9874 83.9711 11.8545 83.4077 11.8545C82.1637 11.8545 81.365 12.7218 81.365 13.791C81.365 14.8207 82.2112 15.6794 83.3954 15.6794C84.2179 15.6794 84.6582 15.2506 85.1277 14.7168V16.2569C84.8882 16.4165 84.6134 16.5905 84.3321 16.6926C84.0358 16.8034 83.6829 16.857 83.2739 16.857C81.2953 16.857 79.9903 15.3954 79.9903 13.7066C79.9903 12.8393 80.2923 12.1227 80.9001 11.5633C81.5459 10.9711 82.3917 10.6776 83.428 10.6776C85.3929 10.6776 86.7986 11.6833 86.7986 13.5006V16.7357H86.7021C85.9961 16.7357 85.4236 16.2255 85.4236 15.596V13.4039ZM66.604 13.0567C66.43 12.5776 66.2123 12.3418 65.7111 12.0927C64.5203 11.4988 63.3476 12.0038 62.8022 13.0519L66.604 13.0567ZM65.5551 16.8389C64.6767 17.005 63.8151 16.8768 62.9747 16.4585C62.1549 16.0498 61.605 15.4423 61.3302 14.6402C60.7737 13.0174 61.9139 11.2086 63.7469 10.7705C64.656 10.5535 65.5275 10.652 66.3553 11.0648C67.7307 11.7499 68.2316 12.81 68.1443 14.1762L62.6056 14.1659C62.6869 14.7233 63.0747 15.1593 63.6189 15.4306C64.1708 15.7057 64.6786 15.7713 65.15 15.6411C65.6723 15.4945 66.0966 15.1142 66.4415 14.7598L67.5706 15.4932C67.1099 16.2279 66.4829 16.6626 65.5551 16.8389ZM77.1474 10.7986H78.5221V16.7357H78.4255C77.72 16.7357 77.1474 16.2255 77.1474 15.596V10.7986Z" fill="#3CAF41"/>
</svg>
